<mxfile host="Electron" agent="Mozilla/5.0 (Windows NT 10.0; Win64; x64) AppleWebKit/537.36 (KHTML, like Gecko) draw.io/26.0.16 Chrome/132.0.6834.196 Electron/34.2.0 Safari/537.36" version="26.0.16" pages="2">
  <diagram name="ER Diagram" id="iEq-3BTUeOZkrWuqYAaE">
    <mxGraphModel dx="2759" dy="3329" grid="1" gridSize="10" guides="1" tooltips="1" connect="1" arrows="1" fold="1" page="1" pageScale="1" pageWidth="850" pageHeight="1100" math="0" shadow="0">
      <root>
        <mxCell id="0" />
        <mxCell id="1" parent="0" />
        <mxCell id="Fl8wgh6-w1vU4mEuAM_F-2" value="Product" style="whiteSpace=wrap;html=1;align=center;" parent="1" vertex="1">
          <mxGeometry x="405" y="-820" width="100" height="40" as="geometry" />
        </mxCell>
        <mxCell id="Fl8wgh6-w1vU4mEuAM_F-3" value="User" style="whiteSpace=wrap;html=1;align=center;" parent="1" vertex="1">
          <mxGeometry x="-192" y="-493" width="100" height="40" as="geometry" />
        </mxCell>
        <mxCell id="Fl8wgh6-w1vU4mEuAM_F-4" value="Order" style="whiteSpace=wrap;html=1;align=center;" parent="1" vertex="1">
          <mxGeometry x="410" y="-460" width="100" height="40" as="geometry" />
        </mxCell>
        <mxCell id="Fl8wgh6-w1vU4mEuAM_F-6" value="Category" style="whiteSpace=wrap;html=1;align=center;" parent="1" vertex="1">
          <mxGeometry x="770" y="-820" width="100" height="40" as="geometry" />
        </mxCell>
        <mxCell id="Fl8wgh6-w1vU4mEuAM_F-7" value="Id" style="ellipse;whiteSpace=wrap;html=1;align=center;fontStyle=4;" parent="1" vertex="1">
          <mxGeometry x="-370" y="-480" width="100" height="40" as="geometry" />
        </mxCell>
        <mxCell id="Fl8wgh6-w1vU4mEuAM_F-9" value="" style="endArrow=none;html=1;rounded=0;entryX=1;entryY=1;entryDx=0;entryDy=0;exitX=0.072;exitY=-0.045;exitDx=0;exitDy=0;exitPerimeter=0;" parent="1" source="Fl8wgh6-w1vU4mEuAM_F-2" target="Fl8wgh6-w1vU4mEuAM_F-25" edge="1">
          <mxGeometry relative="1" as="geometry">
            <mxPoint x="280" y="-805.8" as="sourcePoint" />
            <mxPoint x="325.0999999999999" y="-839.9999999999998" as="targetPoint" />
          </mxGeometry>
        </mxCell>
        <mxCell id="Fl8wgh6-w1vU4mEuAM_F-10" value="Name" style="ellipse;whiteSpace=wrap;html=1;align=center;" parent="1" vertex="1">
          <mxGeometry x="-360" y="-525" width="100" height="40" as="geometry" />
        </mxCell>
        <mxCell id="Fl8wgh6-w1vU4mEuAM_F-11" value="" style="endArrow=none;html=1;rounded=0;exitX=0.648;exitY=1.047;exitDx=0;exitDy=0;entryX=0;entryY=0;entryDx=0;entryDy=0;exitPerimeter=0;" parent="1" source="Fl8wgh6-w1vU4mEuAM_F-12" target="Fl8wgh6-w1vU4mEuAM_F-3" edge="1">
          <mxGeometry relative="1" as="geometry">
            <mxPoint x="-48.299999999999955" y="-513" as="sourcePoint" />
            <mxPoint x="-82" y="-472" as="targetPoint" />
          </mxGeometry>
        </mxCell>
        <mxCell id="Fl8wgh6-w1vU4mEuAM_F-12" value="Email" style="ellipse;whiteSpace=wrap;html=1;align=center;" parent="1" vertex="1">
          <mxGeometry x="-320" y="-575" width="100" height="40" as="geometry" />
        </mxCell>
        <mxCell id="Fl8wgh6-w1vU4mEuAM_F-13" value="" style="endArrow=none;html=1;rounded=0;exitX=1;exitY=0.5;exitDx=0;exitDy=0;entryX=0;entryY=0.25;entryDx=0;entryDy=0;" parent="1" source="Fl8wgh6-w1vU4mEuAM_F-10" target="Fl8wgh6-w1vU4mEuAM_F-3" edge="1">
          <mxGeometry relative="1" as="geometry">
            <mxPoint x="-72" y="-523.3199999999999" as="sourcePoint" />
            <mxPoint x="-132" y="-485.32" as="targetPoint" />
          </mxGeometry>
        </mxCell>
        <mxCell id="Fl8wgh6-w1vU4mEuAM_F-14" value="Password" style="ellipse;whiteSpace=wrap;html=1;align=center;" parent="1" vertex="1">
          <mxGeometry x="-220" y="-585" width="100" height="40" as="geometry" />
        </mxCell>
        <mxCell id="Fl8wgh6-w1vU4mEuAM_F-15" value="" style="endArrow=none;html=1;rounded=0;exitX=0.25;exitY=0;exitDx=0;exitDy=0;entryX=0.434;entryY=0.997;entryDx=0;entryDy=0;entryPerimeter=0;" parent="1" source="Fl8wgh6-w1vU4mEuAM_F-3" target="Fl8wgh6-w1vU4mEuAM_F-14" edge="1">
          <mxGeometry relative="1" as="geometry">
            <mxPoint x="-181.7" y="-484.88" as="sourcePoint" />
            <mxPoint x="-138.7" y="-512.88" as="targetPoint" />
          </mxGeometry>
        </mxCell>
        <mxCell id="Fl8wgh6-w1vU4mEuAM_F-19" value="Phone" style="ellipse;whiteSpace=wrap;html=1;align=center;" parent="1" vertex="1">
          <mxGeometry x="-110" y="-585" width="100" height="40" as="geometry" />
        </mxCell>
        <mxCell id="Fl8wgh6-w1vU4mEuAM_F-20" value="" style="endArrow=none;html=1;rounded=0;entryX=0.221;entryY=0.931;entryDx=0;entryDy=0;entryPerimeter=0;exitX=1.01;exitY=0.381;exitDx=0;exitDy=0;exitPerimeter=0;" parent="1" source="Fl8wgh6-w1vU4mEuAM_F-7" edge="1">
          <mxGeometry relative="1" as="geometry">
            <mxPoint x="-237.1" y="-429.24" as="sourcePoint" />
            <mxPoint x="-192.1" y="-463.24" as="targetPoint" />
          </mxGeometry>
        </mxCell>
        <mxCell id="Fl8wgh6-w1vU4mEuAM_F-21" value="Address" style="ellipse;whiteSpace=wrap;html=1;align=center;" parent="1" vertex="1">
          <mxGeometry x="-340" y="-435" width="100" height="40" as="geometry" />
        </mxCell>
        <mxCell id="Fl8wgh6-w1vU4mEuAM_F-22" value="" style="endArrow=none;html=1;rounded=0;entryX=0;entryY=1;entryDx=0;entryDy=0;exitX=0.7;exitY=0;exitDx=0;exitDy=0;exitPerimeter=0;" parent="1" source="Fl8wgh6-w1vU4mEuAM_F-21" target="Fl8wgh6-w1vU4mEuAM_F-3" edge="1">
          <mxGeometry relative="1" as="geometry">
            <mxPoint x="-232" y="-413.24" as="sourcePoint" />
            <mxPoint x="-183.1" y="-438.48" as="targetPoint" />
          </mxGeometry>
        </mxCell>
        <mxCell id="Fl8wgh6-w1vU4mEuAM_F-25" value="Id" style="ellipse;whiteSpace=wrap;html=1;align=center;fontStyle=4;" parent="1" vertex="1">
          <mxGeometry x="240" y="-870" width="100" height="40" as="geometry" />
        </mxCell>
        <mxCell id="Fl8wgh6-w1vU4mEuAM_F-26" value="" style="endArrow=none;html=1;rounded=0;entryX=0.25;entryY=1;entryDx=0;entryDy=0;exitX=0.627;exitY=0.121;exitDx=0;exitDy=0;exitPerimeter=0;" parent="1" source="rEzFjQPr3p31rgIZzdX1-20" target="Fl8wgh6-w1vU4mEuAM_F-3" edge="1">
          <mxGeometry relative="1" as="geometry">
            <mxPoint x="-144.59999999999982" y="-380.80000000000007" as="sourcePoint" />
            <mxPoint x="-121.99999999999991" y="-435.0000000000001" as="targetPoint" />
          </mxGeometry>
        </mxCell>
        <mxCell id="Fl8wgh6-w1vU4mEuAM_F-27" value="Name" style="ellipse;whiteSpace=wrap;html=1;align=center;" parent="1" vertex="1">
          <mxGeometry x="310" y="-912" width="100" height="40" as="geometry" />
        </mxCell>
        <mxCell id="Fl8wgh6-w1vU4mEuAM_F-28" value="" style="endArrow=none;html=1;rounded=0;entryX=0.5;entryY=1;entryDx=0;entryDy=0;" parent="1" source="Fl8wgh6-w1vU4mEuAM_F-2" target="Fl8wgh6-w1vU4mEuAM_F-30" edge="1">
          <mxGeometry relative="1" as="geometry">
            <mxPoint x="523.2" y="-834" as="sourcePoint" />
            <mxPoint x="480" y="-880" as="targetPoint" />
          </mxGeometry>
        </mxCell>
        <mxCell id="Fl8wgh6-w1vU4mEuAM_F-30" value="Description" style="ellipse;whiteSpace=wrap;html=1;align=center;" parent="1" vertex="1">
          <mxGeometry x="446" y="-930" width="100" height="40" as="geometry" />
        </mxCell>
        <mxCell id="Fl8wgh6-w1vU4mEuAM_F-31" value="Price" style="ellipse;whiteSpace=wrap;html=1;align=center;" parent="1" vertex="1">
          <mxGeometry x="546" y="-920" width="100" height="40" as="geometry" />
        </mxCell>
        <mxCell id="Fl8wgh6-w1vU4mEuAM_F-32" value="" style="endArrow=none;html=1;rounded=0;entryX=0.233;entryY=0.913;entryDx=0;entryDy=0;exitX=1;exitY=0;exitDx=0;exitDy=0;entryPerimeter=0;" parent="1" source="Fl8wgh6-w1vU4mEuAM_F-2" target="Fl8wgh6-w1vU4mEuAM_F-31" edge="1">
          <mxGeometry relative="1" as="geometry">
            <mxPoint x="510" y="-790" as="sourcePoint" />
            <mxPoint x="573" y="-843" as="targetPoint" />
          </mxGeometry>
        </mxCell>
        <mxCell id="Fl8wgh6-w1vU4mEuAM_F-33" value="UnitsInStock" style="ellipse;whiteSpace=wrap;html=1;align=center;" parent="1" vertex="1">
          <mxGeometry x="590" y="-880" width="100" height="40" as="geometry" />
        </mxCell>
        <mxCell id="Fl8wgh6-w1vU4mEuAM_F-34" value="" style="endArrow=none;html=1;rounded=0;entryX=0;entryY=1;entryDx=0;entryDy=0;exitX=1;exitY=0.25;exitDx=0;exitDy=0;" parent="1" source="Fl8wgh6-w1vU4mEuAM_F-2" target="Fl8wgh6-w1vU4mEuAM_F-33" edge="1">
          <mxGeometry relative="1" as="geometry">
            <mxPoint x="520" y="-780" as="sourcePoint" />
            <mxPoint x="605" y="-838" as="targetPoint" />
          </mxGeometry>
        </mxCell>
        <mxCell id="Fl8wgh6-w1vU4mEuAM_F-37" value="Id" style="ellipse;whiteSpace=wrap;html=1;align=center;fontStyle=4;" parent="1" vertex="1">
          <mxGeometry x="710" y="-912" width="100" height="40" as="geometry" />
        </mxCell>
        <mxCell id="Fl8wgh6-w1vU4mEuAM_F-38" value="" style="endArrow=none;html=1;rounded=0;entryX=0.5;entryY=1;entryDx=0;entryDy=0;exitX=0.083;exitY=-0.029;exitDx=0;exitDy=0;exitPerimeter=0;" parent="1" source="Fl8wgh6-w1vU4mEuAM_F-6" target="Fl8wgh6-w1vU4mEuAM_F-37" edge="1">
          <mxGeometry relative="1" as="geometry">
            <mxPoint x="745.85" y="-705.26" as="sourcePoint" />
            <mxPoint x="813.85" y="-778.26" as="targetPoint" />
          </mxGeometry>
        </mxCell>
        <mxCell id="Fl8wgh6-w1vU4mEuAM_F-39" value="Name" style="ellipse;whiteSpace=wrap;html=1;align=center;" parent="1" vertex="1">
          <mxGeometry x="820" y="-912" width="100" height="40" as="geometry" />
        </mxCell>
        <mxCell id="Fl8wgh6-w1vU4mEuAM_F-43" value="" style="endArrow=none;html=1;rounded=0;entryX=0.351;entryY=0.905;entryDx=0;entryDy=0;exitX=0.659;exitY=-0.013;exitDx=0;exitDy=0;exitPerimeter=0;entryPerimeter=0;" parent="1" source="Fl8wgh6-w1vU4mEuAM_F-6" target="Fl8wgh6-w1vU4mEuAM_F-39" edge="1">
          <mxGeometry relative="1" as="geometry">
            <mxPoint x="947" y="-791" as="sourcePoint" />
            <mxPoint x="940" y="-862" as="targetPoint" />
          </mxGeometry>
        </mxCell>
        <mxCell id="Fl8wgh6-w1vU4mEuAM_F-44" value="Id" style="ellipse;whiteSpace=wrap;html=1;align=center;fontStyle=4;" parent="1" vertex="1">
          <mxGeometry x="280" y="-408" width="100" height="40" as="geometry" />
        </mxCell>
        <mxCell id="Fl8wgh6-w1vU4mEuAM_F-45" value="" style="endArrow=none;html=1;rounded=0;exitX=0;exitY=0.5;exitDx=0;exitDy=0;entryX=1;entryY=0;entryDx=0;entryDy=0;" parent="1" source="Fl8wgh6-w1vU4mEuAM_F-4" target="Fl8wgh6-w1vU4mEuAM_F-44" edge="1">
          <mxGeometry relative="1" as="geometry">
            <mxPoint x="413" y="-440" as="sourcePoint" />
            <mxPoint x="355" y="-450" as="targetPoint" />
          </mxGeometry>
        </mxCell>
        <mxCell id="Fl8wgh6-w1vU4mEuAM_F-46" value="Amount" style="ellipse;whiteSpace=wrap;html=1;align=center;" parent="1" vertex="1">
          <mxGeometry x="340" y="-370" width="100" height="40" as="geometry" />
        </mxCell>
        <mxCell id="Fl8wgh6-w1vU4mEuAM_F-47" value="" style="endArrow=none;html=1;rounded=0;entryX=0.25;entryY=1;entryDx=0;entryDy=0;exitX=0.604;exitY=-0.084;exitDx=0;exitDy=0;exitPerimeter=0;" parent="1" source="Fl8wgh6-w1vU4mEuAM_F-46" target="Fl8wgh6-w1vU4mEuAM_F-4" edge="1">
          <mxGeometry relative="1" as="geometry">
            <mxPoint x="473.29" y="-390.20000000000005" as="sourcePoint" />
            <mxPoint x="396.29" y="-414.2" as="targetPoint" />
          </mxGeometry>
        </mxCell>
        <mxCell id="Fl8wgh6-w1vU4mEuAM_F-48" value="Status" style="ellipse;whiteSpace=wrap;html=1;align=center;" parent="1" vertex="1">
          <mxGeometry x="446" y="-370" width="100" height="40" as="geometry" />
        </mxCell>
        <mxCell id="Fl8wgh6-w1vU4mEuAM_F-49" value="" style="endArrow=none;html=1;rounded=0;entryX=0.75;entryY=1;entryDx=0;entryDy=0;exitX=0.394;exitY=0.003;exitDx=0;exitDy=0;exitPerimeter=0;" parent="1" source="Fl8wgh6-w1vU4mEuAM_F-48" target="Fl8wgh6-w1vU4mEuAM_F-4" edge="1">
          <mxGeometry relative="1" as="geometry">
            <mxPoint x="595.4" y="-390.31999999999994" as="sourcePoint" />
            <mxPoint x="545.4" y="-450.32" as="targetPoint" />
          </mxGeometry>
        </mxCell>
        <mxCell id="Fl8wgh6-w1vU4mEuAM_F-50" value="Creattion&lt;span style=&quot;background-color: transparent; color: light-dark(rgb(0, 0, 0), rgb(255, 255, 255));&quot;&gt;Date&lt;/span&gt;" style="ellipse;whiteSpace=wrap;html=1;align=center;" parent="1" vertex="1">
          <mxGeometry x="-50" y="-417" width="100" height="40" as="geometry" />
        </mxCell>
        <mxCell id="Fl8wgh6-w1vU4mEuAM_F-51" value="" style="endArrow=none;html=1;rounded=0;entryX=0;entryY=1;entryDx=0;entryDy=0;exitX=0.939;exitY=0.231;exitDx=0;exitDy=0;exitPerimeter=0;" parent="1" source="Fl8wgh6-w1vU4mEuAM_F-50" target="Fl8wgh6-w1vU4mEuAM_F-58" edge="1">
          <mxGeometry relative="1" as="geometry">
            <mxPoint x="464.6" y="-203.12" as="sourcePoint" />
            <mxPoint x="479.6" y="-251.12" as="targetPoint" />
          </mxGeometry>
        </mxCell>
        <mxCell id="Fl8wgh6-w1vU4mEuAM_F-52" value="&lt;span style=&quot;background-color: transparent; color: light-dark(rgb(0, 0, 0), rgb(255, 255, 255));&quot;&gt;UpdateDate&lt;/span&gt;" style="ellipse;whiteSpace=wrap;html=1;align=center;" parent="1" vertex="1">
          <mxGeometry x="40" y="-370" width="100" height="40" as="geometry" />
        </mxCell>
        <mxCell id="Fl8wgh6-w1vU4mEuAM_F-53" value="" style="endArrow=none;html=1;rounded=0;entryX=0.425;entryY=0.954;entryDx=0;entryDy=0;exitX=0.642;exitY=0.054;exitDx=0;exitDy=0;entryPerimeter=0;exitPerimeter=0;" parent="1" source="Fl8wgh6-w1vU4mEuAM_F-52" target="Fl8wgh6-w1vU4mEuAM_F-58" edge="1">
          <mxGeometry relative="1" as="geometry">
            <mxPoint x="441.4" y="-202.72000000000003" as="sourcePoint" />
            <mxPoint x="400.4" y="-262.72" as="targetPoint" />
          </mxGeometry>
        </mxCell>
        <mxCell id="Fl8wgh6-w1vU4mEuAM_F-54" value="PriceAtPurchase" style="ellipse;whiteSpace=wrap;html=1;align=center;" parent="1" vertex="1">
          <mxGeometry x="580" y="-675" width="100" height="40" as="geometry" />
        </mxCell>
        <mxCell id="Fl8wgh6-w1vU4mEuAM_F-55" value="ProductQuantity" style="ellipse;whiteSpace=wrap;html=1;align=center;" parent="1" vertex="1">
          <mxGeometry x="610" y="-625" width="100" height="40" as="geometry" />
        </mxCell>
        <mxCell id="Fl8wgh6-w1vU4mEuAM_F-56" value="" style="endArrow=none;html=1;rounded=0;entryX=0;entryY=0.5;entryDx=0;entryDy=0;exitX=0.837;exitY=0.732;exitDx=0;exitDy=0;exitPerimeter=0;" parent="1" source="Fl8wgh6-w1vU4mEuAM_F-68" target="Fl8wgh6-w1vU4mEuAM_F-55" edge="1">
          <mxGeometry relative="1" as="geometry">
            <mxPoint x="650" y="-583" as="sourcePoint" />
            <mxPoint x="730" y="70" as="targetPoint" />
          </mxGeometry>
        </mxCell>
        <mxCell id="Fl8wgh6-w1vU4mEuAM_F-57" value="" style="endArrow=none;html=1;rounded=0;entryX=0.068;entryY=0.72;entryDx=0;entryDy=0;entryPerimeter=0;" parent="1" source="Fl8wgh6-w1vU4mEuAM_F-68" target="Fl8wgh6-w1vU4mEuAM_F-54" edge="1">
          <mxGeometry relative="1" as="geometry">
            <mxPoint x="580" y="-10" as="sourcePoint" />
            <mxPoint x="680" y="-46" as="targetPoint" />
          </mxGeometry>
        </mxCell>
        <mxCell id="Fl8wgh6-w1vU4mEuAM_F-58" value="Place" style="shape=rhombus;perimeter=rhombusPerimeter;whiteSpace=wrap;html=1;align=center;" parent="1" vertex="1">
          <mxGeometry x="80" y="-485" width="120" height="60" as="geometry" />
        </mxCell>
        <mxCell id="Fl8wgh6-w1vU4mEuAM_F-59" value="" style="endArrow=none;html=1;rounded=0;exitX=0.176;exitY=0.34;exitDx=0;exitDy=0;entryX=1;entryY=0.5;entryDx=0;entryDy=0;exitPerimeter=0;" parent="1" source="Fl8wgh6-w1vU4mEuAM_F-58" target="Fl8wgh6-w1vU4mEuAM_F-3" edge="1">
          <mxGeometry relative="1" as="geometry">
            <mxPoint x="20.19999999999999" y="-445.96" as="sourcePoint" />
            <mxPoint x="-90" y="-455" as="targetPoint" />
          </mxGeometry>
        </mxCell>
        <mxCell id="Fl8wgh6-w1vU4mEuAM_F-60" value="" style="endArrow=none;html=1;rounded=0;entryX=1;entryY=1;entryDx=0;entryDy=0;exitX=-0.031;exitY=0.375;exitDx=0;exitDy=0;exitPerimeter=0;" parent="1" source="Fl8wgh6-w1vU4mEuAM_F-4" target="Fl8wgh6-w1vU4mEuAM_F-58" edge="1">
          <mxGeometry relative="1" as="geometry">
            <mxPoint x="384.2" y="-469.8" as="sourcePoint" />
            <mxPoint x="270.2" y="-559.8" as="targetPoint" />
          </mxGeometry>
        </mxCell>
        <mxCell id="Fl8wgh6-w1vU4mEuAM_F-61" value="1" style="text;html=1;align=center;verticalAlign=middle;resizable=0;points=[];autosize=1;strokeColor=none;fillColor=none;" parent="1" vertex="1">
          <mxGeometry x="-80" y="-500" width="30" height="30" as="geometry" />
        </mxCell>
        <mxCell id="Fl8wgh6-w1vU4mEuAM_F-62" value="M" style="text;html=1;align=center;verticalAlign=middle;resizable=0;points=[];autosize=1;strokeColor=none;fillColor=none;" parent="1" vertex="1">
          <mxGeometry x="362.5" y="-475" width="30" height="30" as="geometry" />
        </mxCell>
        <mxCell id="Fl8wgh6-w1vU4mEuAM_F-63" value="" style="endArrow=none;html=1;rounded=0;entryX=0.84;entryY=0.653;entryDx=0;entryDy=0;exitX=0;exitY=0.25;exitDx=0;exitDy=0;entryPerimeter=0;" parent="1" source="Fl8wgh6-w1vU4mEuAM_F-4" target="Fl8wgh6-w1vU4mEuAM_F-58" edge="1">
          <mxGeometry relative="1" as="geometry">
            <mxPoint x="410" y="-465" as="sourcePoint" />
            <mxPoint x="260" y="-570" as="targetPoint" />
          </mxGeometry>
        </mxCell>
        <mxCell id="Fl8wgh6-w1vU4mEuAM_F-68" value="Contain" style="shape=rhombus;perimeter=rhombusPerimeter;whiteSpace=wrap;html=1;align=center;" parent="1" vertex="1">
          <mxGeometry x="440" y="-645" width="120" height="60" as="geometry" />
        </mxCell>
        <mxCell id="Fl8wgh6-w1vU4mEuAM_F-69" value="" style="endArrow=none;html=1;rounded=0;entryX=0;entryY=1;entryDx=0;entryDy=0;exitX=1;exitY=0.25;exitDx=0;exitDy=0;" parent="1" target="Fl8wgh6-w1vU4mEuAM_F-68" edge="1">
          <mxGeometry relative="1" as="geometry">
            <mxPoint x="467.84000000000003" y="-460" as="sourcePoint" />
            <mxPoint x="456.84000000000003" y="-604.72" as="targetPoint" />
          </mxGeometry>
        </mxCell>
        <mxCell id="Fl8wgh6-w1vU4mEuAM_F-81" value="N" style="text;html=1;align=center;verticalAlign=middle;resizable=0;points=[];autosize=1;strokeColor=none;fillColor=none;" parent="1" vertex="1">
          <mxGeometry x="441" y="-493" width="30" height="30" as="geometry" />
        </mxCell>
        <mxCell id="Fl8wgh6-w1vU4mEuAM_F-82" value="Belong-To" style="shape=rhombus;perimeter=rhombusPerimeter;whiteSpace=wrap;html=1;align=center;" parent="1" vertex="1">
          <mxGeometry x="590" y="-830" width="120" height="60" as="geometry" />
        </mxCell>
        <mxCell id="Fl8wgh6-w1vU4mEuAM_F-83" value="" style="endArrow=none;html=1;rounded=0;entryX=1;entryY=0.5;entryDx=0;entryDy=0;exitX=0;exitY=0.5;exitDx=0;exitDy=0;" parent="1" source="Fl8wgh6-w1vU4mEuAM_F-82" target="Fl8wgh6-w1vU4mEuAM_F-2" edge="1">
          <mxGeometry relative="1" as="geometry">
            <mxPoint x="572" y="-757.34" as="sourcePoint" />
            <mxPoint x="510" y="-822.34" as="targetPoint" />
          </mxGeometry>
        </mxCell>
        <mxCell id="Fl8wgh6-w1vU4mEuAM_F-84" value="" style="endArrow=none;html=1;rounded=0;exitX=0;exitY=0.5;exitDx=0;exitDy=0;entryX=1;entryY=0.5;entryDx=0;entryDy=0;" parent="1" target="Fl8wgh6-w1vU4mEuAM_F-82" edge="1">
          <mxGeometry relative="1" as="geometry">
            <mxPoint x="770" y="-800.26" as="sourcePoint" />
            <mxPoint x="720" y="-800" as="targetPoint" />
          </mxGeometry>
        </mxCell>
        <mxCell id="Fl8wgh6-w1vU4mEuAM_F-85" value="" style="endArrow=none;html=1;rounded=0;entryX=1;entryY=0.5;entryDx=0;entryDy=0;exitX=0;exitY=0.5;exitDx=0;exitDy=0;" parent="1" edge="1">
          <mxGeometry relative="1" as="geometry">
            <mxPoint x="590" y="-800.26" as="sourcePoint" />
            <mxPoint x="505" y="-800.26" as="targetPoint" />
          </mxGeometry>
        </mxCell>
        <mxCell id="Fl8wgh6-w1vU4mEuAM_F-86" value="" style="endArrow=none;html=1;rounded=0;entryX=1;entryY=0.5;entryDx=0;entryDy=0;exitX=0.028;exitY=0.555;exitDx=0;exitDy=0;exitPerimeter=0;" parent="1" source="Fl8wgh6-w1vU4mEuAM_F-82" edge="1">
          <mxGeometry relative="1" as="geometry">
            <mxPoint x="590" y="-797.15" as="sourcePoint" />
            <mxPoint x="505" y="-797.15" as="targetPoint" />
          </mxGeometry>
        </mxCell>
        <mxCell id="Fl8wgh6-w1vU4mEuAM_F-87" value="1" style="text;html=1;align=center;verticalAlign=middle;resizable=0;points=[];autosize=1;strokeColor=none;fillColor=none;" parent="1" vertex="1">
          <mxGeometry x="740" y="-826" width="30" height="30" as="geometry" />
        </mxCell>
        <mxCell id="Fl8wgh6-w1vU4mEuAM_F-88" value="M" style="text;html=1;align=center;verticalAlign=middle;resizable=0;points=[];autosize=1;strokeColor=none;fillColor=none;" parent="1" vertex="1">
          <mxGeometry x="516" y="-824" width="30" height="30" as="geometry" />
        </mxCell>
        <mxCell id="rEzFjQPr3p31rgIZzdX1-1" value="Discount" style="ellipse;whiteSpace=wrap;html=1;align=center;" parent="1" vertex="1">
          <mxGeometry x="250" y="-810" width="100" height="40" as="geometry" />
        </mxCell>
        <mxCell id="rEzFjQPr3p31rgIZzdX1-2" value="HasDiscount" style="ellipse;whiteSpace=wrap;html=1;align=center;" parent="1" vertex="1">
          <mxGeometry x="260" y="-750" width="100" height="40" as="geometry" />
        </mxCell>
        <mxCell id="rEzFjQPr3p31rgIZzdX1-4" style="edgeStyle=orthogonalEdgeStyle;rounded=0;orthogonalLoop=1;jettySize=auto;html=1;exitX=0.5;exitY=1;exitDx=0;exitDy=0;" parent="1" edge="1">
          <mxGeometry relative="1" as="geometry">
            <mxPoint x="330" y="-690.0000000000001" as="sourcePoint" />
            <mxPoint x="330" y="-690.0000000000001" as="targetPoint" />
          </mxGeometry>
        </mxCell>
        <mxCell id="rEzFjQPr3p31rgIZzdX1-5" value="" style="endArrow=none;html=1;rounded=0;entryX=1;entryY=0.5;entryDx=0;entryDy=0;exitX=0;exitY=0.5;exitDx=0;exitDy=0;" parent="1" source="Fl8wgh6-w1vU4mEuAM_F-2" target="rEzFjQPr3p31rgIZzdX1-1" edge="1">
          <mxGeometry relative="1" as="geometry">
            <mxPoint x="404.64" y="-780.2" as="sourcePoint" />
            <mxPoint x="317.64" y="-816.2" as="targetPoint" />
          </mxGeometry>
        </mxCell>
        <mxCell id="rEzFjQPr3p31rgIZzdX1-6" value="" style="endArrow=none;html=1;rounded=0;entryX=1;entryY=0;entryDx=0;entryDy=0;exitX=0;exitY=0.75;exitDx=0;exitDy=0;" parent="1" source="Fl8wgh6-w1vU4mEuAM_F-2" target="rEzFjQPr3p31rgIZzdX1-2" edge="1">
          <mxGeometry relative="1" as="geometry">
            <mxPoint x="423.22" y="-734.14" as="sourcePoint" />
            <mxPoint x="336.22" y="-770.14" as="targetPoint" />
          </mxGeometry>
        </mxCell>
        <mxCell id="rEzFjQPr3p31rgIZzdX1-7" value="" style="endArrow=none;html=1;rounded=0;entryX=0.755;entryY=0.164;entryDx=0;entryDy=0;exitX=0.25;exitY=1;exitDx=0;exitDy=0;entryPerimeter=0;" parent="1" source="Fl8wgh6-w1vU4mEuAM_F-2" target="AzCA04fSjlwmM0BOK2ZX-1" edge="1">
          <mxGeometry relative="1" as="geometry">
            <mxPoint x="412.5" y="-760" as="sourcePoint" />
            <mxPoint x="344.89999999999964" y="-728.48" as="targetPoint" />
          </mxGeometry>
        </mxCell>
        <mxCell id="rEzFjQPr3p31rgIZzdX1-17" value="" style="endArrow=none;html=1;rounded=0;entryX=0.5;entryY=1;entryDx=0;entryDy=0;" parent="1" target="Fl8wgh6-w1vU4mEuAM_F-27" edge="1">
          <mxGeometry relative="1" as="geometry">
            <mxPoint x="420" y="-818" as="sourcePoint" />
            <mxPoint x="440" y="-890" as="targetPoint" />
          </mxGeometry>
        </mxCell>
        <mxCell id="rEzFjQPr3p31rgIZzdX1-20" value="AcountType" style="ellipse;whiteSpace=wrap;html=1;align=center;" parent="1" vertex="1">
          <mxGeometry x="-250" y="-405" width="100" height="40" as="geometry" />
        </mxCell>
        <mxCell id="rEzFjQPr3p31rgIZzdX1-21" value="" style="endArrow=none;html=1;rounded=0;entryX=0.25;entryY=1;entryDx=0;entryDy=0;exitX=0.75;exitY=0;exitDx=0;exitDy=0;" parent="1" source="Fl8wgh6-w1vU4mEuAM_F-3" edge="1">
          <mxGeometry relative="1" as="geometry">
            <mxPoint x="-57.59999999999982" y="-472.80000000000007" as="sourcePoint" />
            <mxPoint x="-80" y="-545" as="targetPoint" />
          </mxGeometry>
        </mxCell>
        <mxCell id="C_8oCMZCMFANRo7_URS4-1" value="" style="endArrow=none;html=1;rounded=0;entryX=0.75;entryY=1;entryDx=0;entryDy=0;exitX=0.293;exitY=0.24;exitDx=0;exitDy=0;exitPerimeter=0;" parent="1" source="Fl8wgh6-w1vU4mEuAM_F-68" target="Fl8wgh6-w1vU4mEuAM_F-2" edge="1">
          <mxGeometry relative="1" as="geometry">
            <mxPoint x="510" y="-610.28" as="sourcePoint" />
            <mxPoint x="585" y="-730.28" as="targetPoint" />
          </mxGeometry>
        </mxCell>
        <mxCell id="C_8oCMZCMFANRo7_URS4-2" value="M" style="text;html=1;align=center;verticalAlign=middle;resizable=0;points=[];autosize=1;strokeColor=none;fillColor=none;" parent="1" vertex="1">
          <mxGeometry x="446" y="-770" width="30" height="30" as="geometry" />
        </mxCell>
        <mxCell id="C_8oCMZCMFANRo7_URS4-3" value="" style="endArrow=none;html=1;rounded=0;entryX=0.222;entryY=0.742;entryDx=0;entryDy=0;entryPerimeter=0;exitX=0.531;exitY=-0.016;exitDx=0;exitDy=0;exitPerimeter=0;" parent="1" target="Fl8wgh6-w1vU4mEuAM_F-68" edge="1" source="Fl8wgh6-w1vU4mEuAM_F-4">
          <mxGeometry relative="1" as="geometry">
            <mxPoint x="460" y="-460" as="sourcePoint" />
            <mxPoint x="452" y="-608" as="targetPoint" />
          </mxGeometry>
        </mxCell>
        <mxCell id="Qrv3Nrg02NQAAlk__usZ-1" value="ShippingDate" style="ellipse;whiteSpace=wrap;html=1;align=center;" parent="1" vertex="1">
          <mxGeometry x="550" y="-405" width="100" height="40" as="geometry" />
        </mxCell>
        <mxCell id="Qrv3Nrg02NQAAlk__usZ-2" value="" style="endArrow=none;html=1;rounded=0;entryX=1;entryY=1;entryDx=0;entryDy=0;exitX=0.04;exitY=0.335;exitDx=0;exitDy=0;exitPerimeter=0;" parent="1" source="Qrv3Nrg02NQAAlk__usZ-1" target="Fl8wgh6-w1vU4mEuAM_F-4" edge="1">
          <mxGeometry relative="1" as="geometry">
            <mxPoint x="545" y="-375" as="sourcePoint" />
            <mxPoint x="545" y="-425" as="targetPoint" />
          </mxGeometry>
        </mxCell>
        <mxCell id="Qrv3Nrg02NQAAlk__usZ-3" value="ShippingFee" style="ellipse;whiteSpace=wrap;html=1;align=center;" parent="1" vertex="1">
          <mxGeometry x="570" y="-453" width="100" height="40" as="geometry" />
        </mxCell>
        <mxCell id="Qrv3Nrg02NQAAlk__usZ-4" value="" style="endArrow=none;html=1;rounded=0;entryX=1;entryY=0.5;entryDx=0;entryDy=0;exitX=0;exitY=0.5;exitDx=0;exitDy=0;" parent="1" source="Qrv3Nrg02NQAAlk__usZ-3" target="Fl8wgh6-w1vU4mEuAM_F-4" edge="1">
          <mxGeometry relative="1" as="geometry">
            <mxPoint x="560" y="-422" as="sourcePoint" />
            <mxPoint x="516" y="-450" as="targetPoint" />
          </mxGeometry>
        </mxCell>
        <mxCell id="AzCA04fSjlwmM0BOK2ZX-1" value="Color" style="ellipse;shape=doubleEllipse;margin=3;whiteSpace=wrap;html=1;align=center;" vertex="1" parent="1">
          <mxGeometry x="346" y="-720" width="100" height="40" as="geometry" />
        </mxCell>
        <mxCell id="12TxEAZQBqLM2lvEsHu1-2" value="Brand" style="whiteSpace=wrap;html=1;align=center;" vertex="1" parent="1">
          <mxGeometry x="375" y="-1140" width="100" height="40" as="geometry" />
        </mxCell>
        <mxCell id="12TxEAZQBqLM2lvEsHu1-4" value="Has" style="shape=rhombus;perimeter=rhombusPerimeter;whiteSpace=wrap;html=1;align=center;" vertex="1" parent="1">
          <mxGeometry x="365" y="-1020" width="120" height="60" as="geometry" />
        </mxCell>
        <mxCell id="12TxEAZQBqLM2lvEsHu1-5" value="" style="endArrow=none;html=1;rounded=0;exitX=0.25;exitY=0;exitDx=0;exitDy=0;" edge="1" parent="1" source="Fl8wgh6-w1vU4mEuAM_F-2" target="12TxEAZQBqLM2lvEsHu1-4">
          <mxGeometry relative="1" as="geometry">
            <mxPoint x="454.55" y="-900" as="sourcePoint" />
            <mxPoint x="454.55" y="-970" as="targetPoint" />
          </mxGeometry>
        </mxCell>
        <mxCell id="12TxEAZQBqLM2lvEsHu1-6" value="" style="endArrow=none;html=1;rounded=0;exitX=0.5;exitY=0;exitDx=0;exitDy=0;entryX=0.5;entryY=1;entryDx=0;entryDy=0;" edge="1" parent="1" source="12TxEAZQBqLM2lvEsHu1-4" target="12TxEAZQBqLM2lvEsHu1-2">
          <mxGeometry relative="1" as="geometry">
            <mxPoint x="511" y="-970" as="sourcePoint" />
            <mxPoint x="511" y="-1110" as="targetPoint" />
          </mxGeometry>
        </mxCell>
        <mxCell id="12TxEAZQBqLM2lvEsHu1-8" value="1" style="text;html=1;align=center;verticalAlign=middle;resizable=0;points=[];autosize=1;strokeColor=none;fillColor=none;" vertex="1" parent="1">
          <mxGeometry x="385" y="-1092" width="30" height="30" as="geometry" />
        </mxCell>
        <mxCell id="12TxEAZQBqLM2lvEsHu1-9" value="M" style="text;html=1;align=center;verticalAlign=middle;resizable=0;points=[];autosize=1;strokeColor=none;fillColor=none;" vertex="1" parent="1">
          <mxGeometry x="395" y="-860" width="30" height="30" as="geometry" />
        </mxCell>
        <mxCell id="4sbg-K6a9MbaDyN_sdZT-1" value="" style="endArrow=none;html=1;rounded=0;exitX=0.322;exitY=-0.02;exitDx=0;exitDy=0;entryX=0.559;entryY=0.944;entryDx=0;entryDy=0;entryPerimeter=0;exitPerimeter=0;" edge="1" parent="1" source="Fl8wgh6-w1vU4mEuAM_F-2" target="12TxEAZQBqLM2lvEsHu1-4">
          <mxGeometry relative="1" as="geometry">
            <mxPoint x="440" y="-824" as="sourcePoint" />
            <mxPoint x="436" y="-964" as="targetPoint" />
          </mxGeometry>
        </mxCell>
        <mxCell id="9ECxiL15EJnPclMyRz_S-1" value="Id" style="ellipse;whiteSpace=wrap;html=1;align=center;fontStyle=4;" vertex="1" parent="1">
          <mxGeometry x="262.5" y="-1220" width="100" height="40" as="geometry" />
        </mxCell>
        <mxCell id="9ECxiL15EJnPclMyRz_S-3" value="Name" style="ellipse;whiteSpace=wrap;html=1;align=center;" vertex="1" parent="1">
          <mxGeometry x="371" y="-1230" width="100" height="40" as="geometry" />
        </mxCell>
        <mxCell id="9ECxiL15EJnPclMyRz_S-6" value="Description" style="ellipse;whiteSpace=wrap;html=1;align=center;" vertex="1" parent="1">
          <mxGeometry x="471" y="-1220" width="100" height="40" as="geometry" />
        </mxCell>
        <mxCell id="9ECxiL15EJnPclMyRz_S-7" value="" style="endArrow=none;html=1;rounded=0;exitX=0.75;exitY=0;exitDx=0;exitDy=0;entryX=0.304;entryY=0.982;entryDx=0;entryDy=0;entryPerimeter=0;" edge="1" parent="1" source="12TxEAZQBqLM2lvEsHu1-2" target="9ECxiL15EJnPclMyRz_S-6">
          <mxGeometry relative="1" as="geometry">
            <mxPoint x="625" y="-1110" as="sourcePoint" />
            <mxPoint x="560" y="-1160" as="targetPoint" />
          </mxGeometry>
        </mxCell>
        <mxCell id="9ECxiL15EJnPclMyRz_S-8" value="" style="endArrow=none;html=1;rounded=0;exitX=0.367;exitY=-0.02;exitDx=0;exitDy=0;entryX=0.5;entryY=1;entryDx=0;entryDy=0;exitPerimeter=0;" edge="1" parent="1" source="12TxEAZQBqLM2lvEsHu1-2" target="9ECxiL15EJnPclMyRz_S-3">
          <mxGeometry relative="1" as="geometry">
            <mxPoint x="440" y="-1140" as="sourcePoint" />
            <mxPoint x="375" y="-1190" as="targetPoint" />
          </mxGeometry>
        </mxCell>
        <mxCell id="9ECxiL15EJnPclMyRz_S-9" value="" style="endArrow=none;html=1;rounded=0;exitX=0;exitY=0;exitDx=0;exitDy=0;entryX=0.729;entryY=0.998;entryDx=0;entryDy=0;entryPerimeter=0;" edge="1" parent="1" source="12TxEAZQBqLM2lvEsHu1-2" target="9ECxiL15EJnPclMyRz_S-1">
          <mxGeometry relative="1" as="geometry">
            <mxPoint x="282.1" y="-1100.28" as="sourcePoint" />
            <mxPoint x="350.1" y="-1160.28" as="targetPoint" />
          </mxGeometry>
        </mxCell>
        <mxCell id="9ECxiL15EJnPclMyRz_S-10" value="Payment" style="whiteSpace=wrap;html=1;align=center;" vertex="1" parent="1">
          <mxGeometry x="-65" y="-756" width="100" height="40" as="geometry" />
        </mxCell>
        <mxCell id="9ECxiL15EJnPclMyRz_S-11" value="Id" style="ellipse;whiteSpace=wrap;html=1;align=center;fontStyle=4;" vertex="1" parent="1">
          <mxGeometry x="-225" y="-826" width="100" height="40" as="geometry" />
        </mxCell>
        <mxCell id="9ECxiL15EJnPclMyRz_S-13" value="AmmountPaid" style="ellipse;whiteSpace=wrap;html=1;align=center;" vertex="1" parent="1">
          <mxGeometry x="-145" y="-860" width="100" height="40" as="geometry" />
        </mxCell>
        <mxCell id="9ECxiL15EJnPclMyRz_S-14" value="PaymentMethod" style="ellipse;whiteSpace=wrap;html=1;align=center;" vertex="1" parent="1">
          <mxGeometry x="-45" y="-860" width="100" height="40" as="geometry" />
        </mxCell>
        <mxCell id="9ECxiL15EJnPclMyRz_S-17" value="" style="endArrow=none;html=1;rounded=0;exitX=0;exitY=0.25;exitDx=0;exitDy=0;entryX=1;entryY=1;entryDx=0;entryDy=0;" edge="1" parent="1" source="9ECxiL15EJnPclMyRz_S-10" target="9ECxiL15EJnPclMyRz_S-11">
          <mxGeometry relative="1" as="geometry">
            <mxPoint x="-57.120000000000005" y="-702" as="sourcePoint" />
            <mxPoint x="-250.12" y="-710" as="targetPoint" />
          </mxGeometry>
        </mxCell>
        <mxCell id="9ECxiL15EJnPclMyRz_S-18" value="" style="endArrow=none;html=1;rounded=0;exitX=0.25;exitY=0;exitDx=0;exitDy=0;entryX=0.5;entryY=1;entryDx=0;entryDy=0;" edge="1" parent="1" source="9ECxiL15EJnPclMyRz_S-10" target="9ECxiL15EJnPclMyRz_S-13">
          <mxGeometry relative="1" as="geometry">
            <mxPoint x="-15" y="-760.24" as="sourcePoint" />
            <mxPoint x="-110" y="-820.24" as="targetPoint" />
          </mxGeometry>
        </mxCell>
        <mxCell id="9ECxiL15EJnPclMyRz_S-19" value="" style="endArrow=none;html=1;rounded=0;entryX=0.372;entryY=1.067;entryDx=0;entryDy=0;entryPerimeter=0;" edge="1" parent="1" source="9ECxiL15EJnPclMyRz_S-10" target="9ECxiL15EJnPclMyRz_S-14">
          <mxGeometry relative="1" as="geometry">
            <mxPoint x="85" y="-756" as="sourcePoint" />
            <mxPoint x="-10" y="-816" as="targetPoint" />
          </mxGeometry>
        </mxCell>
        <mxCell id="9ECxiL15EJnPclMyRz_S-22" value="Status" style="ellipse;whiteSpace=wrap;html=1;align=center;" vertex="1" parent="1">
          <mxGeometry x="80" y="-850" width="100" height="40" as="geometry" />
        </mxCell>
        <mxCell id="9ECxiL15EJnPclMyRz_S-23" value="" style="endArrow=none;html=1;rounded=0;entryX=0;entryY=1;entryDx=0;entryDy=0;exitX=0.873;exitY=0.082;exitDx=0;exitDy=0;exitPerimeter=0;" edge="1" parent="1" source="9ECxiL15EJnPclMyRz_S-10" target="9ECxiL15EJnPclMyRz_S-22">
          <mxGeometry relative="1" as="geometry">
            <mxPoint x="20" y="-760" as="sourcePoint" />
            <mxPoint x="125.12" y="-760" as="targetPoint" />
          </mxGeometry>
        </mxCell>
        <mxCell id="9ECxiL15EJnPclMyRz_S-24" value="Has" style="shape=rhombus;perimeter=rhombusPerimeter;whiteSpace=wrap;html=1;align=center;" vertex="1" parent="1">
          <mxGeometry x="142.5" y="-635" width="120" height="60" as="geometry" />
        </mxCell>
        <mxCell id="9ECxiL15EJnPclMyRz_S-25" value="" style="endArrow=none;html=1;rounded=0;entryX=1;entryY=1;entryDx=0;entryDy=0;exitX=0;exitY=0;exitDx=0;exitDy=0;" edge="1" parent="1" source="9ECxiL15EJnPclMyRz_S-24" target="9ECxiL15EJnPclMyRz_S-10">
          <mxGeometry relative="1" as="geometry">
            <mxPoint x="93.42000000000002" y="-580.7" as="sourcePoint" />
            <mxPoint x="48.420000000000016" y="-729.7" as="targetPoint" />
          </mxGeometry>
        </mxCell>
        <mxCell id="9ECxiL15EJnPclMyRz_S-26" value="" style="endArrow=none;html=1;rounded=0;entryX=1;entryY=1;entryDx=0;entryDy=0;exitX=0.25;exitY=0;exitDx=0;exitDy=0;" edge="1" parent="1" source="Fl8wgh6-w1vU4mEuAM_F-4" target="9ECxiL15EJnPclMyRz_S-24">
          <mxGeometry relative="1" as="geometry">
            <mxPoint x="375" y="-494" as="sourcePoint" />
            <mxPoint x="224" y="-605" as="targetPoint" />
          </mxGeometry>
        </mxCell>
        <mxCell id="9ECxiL15EJnPclMyRz_S-27" value="" style="endArrow=none;html=1;rounded=0;entryX=0.809;entryY=0.743;entryDx=0;entryDy=0;exitX=0.273;exitY=-0.078;exitDx=0;exitDy=0;exitPerimeter=0;entryPerimeter=0;" edge="1" parent="1" source="Fl8wgh6-w1vU4mEuAM_F-4" target="9ECxiL15EJnPclMyRz_S-24">
          <mxGeometry relative="1" as="geometry">
            <mxPoint x="433.5" y="-469.52" as="sourcePoint" />
            <mxPoint x="240.5" y="-596.52" as="targetPoint" />
          </mxGeometry>
        </mxCell>
        <mxCell id="9ECxiL15EJnPclMyRz_S-28" value="" style="endArrow=none;html=1;rounded=0;entryX=0.995;entryY=0.869;entryDx=0;entryDy=0;exitX=0.285;exitY=0.204;exitDx=0;exitDy=0;entryPerimeter=0;exitPerimeter=0;" edge="1" parent="1" source="9ECxiL15EJnPclMyRz_S-24" target="9ECxiL15EJnPclMyRz_S-10">
          <mxGeometry relative="1" as="geometry">
            <mxPoint x="178" y="-624" as="sourcePoint" />
            <mxPoint x="40" y="-720" as="targetPoint" />
          </mxGeometry>
        </mxCell>
        <mxCell id="9ECxiL15EJnPclMyRz_S-29" value="1" style="text;html=1;align=center;verticalAlign=middle;resizable=0;points=[];autosize=1;strokeColor=none;fillColor=none;" vertex="1" parent="1">
          <mxGeometry x="392.5" y="-510" width="30" height="30" as="geometry" />
        </mxCell>
        <mxCell id="9ECxiL15EJnPclMyRz_S-30" value="PatmentDate" style="ellipse;whiteSpace=wrap;html=1;align=center;" vertex="1" parent="1">
          <mxGeometry x="60" y="-570" width="100" height="40" as="geometry" />
        </mxCell>
        <mxCell id="9ECxiL15EJnPclMyRz_S-31" value="" style="endArrow=none;html=1;rounded=0;exitX=0.785;exitY=0.091;exitDx=0;exitDy=0;exitPerimeter=0;" edge="1" parent="1" source="9ECxiL15EJnPclMyRz_S-30" target="9ECxiL15EJnPclMyRz_S-24">
          <mxGeometry relative="1" as="geometry">
            <mxPoint x="10" y="-600.0699999999999" as="sourcePoint" />
            <mxPoint x="115" y="-630.0699999999999" as="targetPoint" />
          </mxGeometry>
        </mxCell>
        <mxCell id="9ECxiL15EJnPclMyRz_S-33" value="1" style="text;html=1;align=center;verticalAlign=middle;resizable=0;points=[];autosize=1;strokeColor=none;fillColor=none;" vertex="1" parent="1">
          <mxGeometry x="10" y="-710" width="30" height="30" as="geometry" />
        </mxCell>
      </root>
    </mxGraphModel>
  </diagram>
  <diagram id="fWli8IsFqbnRkzavFFfp" name="Relational Schema">
    <mxGraphModel dx="1750" dy="1035" grid="1" gridSize="10" guides="1" tooltips="1" connect="1" arrows="1" fold="1" page="1" pageScale="1" pageWidth="850" pageHeight="1100" math="0" shadow="0">
      <root>
        <mxCell id="0" />
        <mxCell id="1" parent="0" />
        <mxCell id="PnS3_9tSfcJmIM3trs_2-1" value="User" style="shape=table;startSize=30;container=1;collapsible=1;childLayout=tableLayout;fixedRows=1;rowLines=0;fontStyle=1;align=center;resizeLast=1;html=1;" parent="1" vertex="1">
          <mxGeometry x="130" y="80" width="180" height="240" as="geometry" />
        </mxCell>
        <mxCell id="PnS3_9tSfcJmIM3trs_2-2" value="" style="shape=tableRow;horizontal=0;startSize=0;swimlaneHead=0;swimlaneBody=0;fillColor=none;collapsible=0;dropTarget=0;points=[[0,0.5],[1,0.5]];portConstraint=eastwest;top=0;left=0;right=0;bottom=1;" parent="PnS3_9tSfcJmIM3trs_2-1" vertex="1">
          <mxGeometry y="30" width="180" height="30" as="geometry" />
        </mxCell>
        <mxCell id="PnS3_9tSfcJmIM3trs_2-3" value="PK" style="shape=partialRectangle;connectable=0;fillColor=none;top=0;left=0;bottom=0;right=0;fontStyle=1;overflow=hidden;whiteSpace=wrap;html=1;" parent="PnS3_9tSfcJmIM3trs_2-2" vertex="1">
          <mxGeometry width="30" height="30" as="geometry">
            <mxRectangle width="30" height="30" as="alternateBounds" />
          </mxGeometry>
        </mxCell>
        <mxCell id="PnS3_9tSfcJmIM3trs_2-4" value="ID" style="shape=partialRectangle;connectable=0;fillColor=none;top=0;left=0;bottom=0;right=0;align=left;spacingLeft=6;fontStyle=5;overflow=hidden;whiteSpace=wrap;html=1;" parent="PnS3_9tSfcJmIM3trs_2-2" vertex="1">
          <mxGeometry x="30" width="150" height="30" as="geometry">
            <mxRectangle width="150" height="30" as="alternateBounds" />
          </mxGeometry>
        </mxCell>
        <mxCell id="PnS3_9tSfcJmIM3trs_2-5" value="" style="shape=tableRow;horizontal=0;startSize=0;swimlaneHead=0;swimlaneBody=0;fillColor=none;collapsible=0;dropTarget=0;points=[[0,0.5],[1,0.5]];portConstraint=eastwest;top=0;left=0;right=0;bottom=0;" parent="PnS3_9tSfcJmIM3trs_2-1" vertex="1">
          <mxGeometry y="60" width="180" height="30" as="geometry" />
        </mxCell>
        <mxCell id="PnS3_9tSfcJmIM3trs_2-6" value="" style="shape=partialRectangle;connectable=0;fillColor=none;top=0;left=0;bottom=0;right=0;editable=1;overflow=hidden;whiteSpace=wrap;html=1;" parent="PnS3_9tSfcJmIM3trs_2-5" vertex="1">
          <mxGeometry width="30" height="30" as="geometry">
            <mxRectangle width="30" height="30" as="alternateBounds" />
          </mxGeometry>
        </mxCell>
        <mxCell id="PnS3_9tSfcJmIM3trs_2-7" value="Name" style="shape=partialRectangle;connectable=0;fillColor=none;top=0;left=0;bottom=0;right=0;align=left;spacingLeft=6;overflow=hidden;whiteSpace=wrap;html=1;" parent="PnS3_9tSfcJmIM3trs_2-5" vertex="1">
          <mxGeometry x="30" width="150" height="30" as="geometry">
            <mxRectangle width="150" height="30" as="alternateBounds" />
          </mxGeometry>
        </mxCell>
        <mxCell id="PnS3_9tSfcJmIM3trs_2-8" value="" style="shape=tableRow;horizontal=0;startSize=0;swimlaneHead=0;swimlaneBody=0;fillColor=none;collapsible=0;dropTarget=0;points=[[0,0.5],[1,0.5]];portConstraint=eastwest;top=0;left=0;right=0;bottom=0;" parent="PnS3_9tSfcJmIM3trs_2-1" vertex="1">
          <mxGeometry y="90" width="180" height="30" as="geometry" />
        </mxCell>
        <mxCell id="PnS3_9tSfcJmIM3trs_2-9" value="" style="shape=partialRectangle;connectable=0;fillColor=none;top=0;left=0;bottom=0;right=0;editable=1;overflow=hidden;whiteSpace=wrap;html=1;" parent="PnS3_9tSfcJmIM3trs_2-8" vertex="1">
          <mxGeometry width="30" height="30" as="geometry">
            <mxRectangle width="30" height="30" as="alternateBounds" />
          </mxGeometry>
        </mxCell>
        <mxCell id="PnS3_9tSfcJmIM3trs_2-10" value="Email" style="shape=partialRectangle;connectable=0;fillColor=none;top=0;left=0;bottom=0;right=0;align=left;spacingLeft=6;overflow=hidden;whiteSpace=wrap;html=1;" parent="PnS3_9tSfcJmIM3trs_2-8" vertex="1">
          <mxGeometry x="30" width="150" height="30" as="geometry">
            <mxRectangle width="150" height="30" as="alternateBounds" />
          </mxGeometry>
        </mxCell>
        <mxCell id="PnS3_9tSfcJmIM3trs_2-11" value="" style="shape=tableRow;horizontal=0;startSize=0;swimlaneHead=0;swimlaneBody=0;fillColor=none;collapsible=0;dropTarget=0;points=[[0,0.5],[1,0.5]];portConstraint=eastwest;top=0;left=0;right=0;bottom=0;" parent="PnS3_9tSfcJmIM3trs_2-1" vertex="1">
          <mxGeometry y="120" width="180" height="30" as="geometry" />
        </mxCell>
        <mxCell id="PnS3_9tSfcJmIM3trs_2-12" value="" style="shape=partialRectangle;connectable=0;fillColor=none;top=0;left=0;bottom=0;right=0;editable=1;overflow=hidden;whiteSpace=wrap;html=1;" parent="PnS3_9tSfcJmIM3trs_2-11" vertex="1">
          <mxGeometry width="30" height="30" as="geometry">
            <mxRectangle width="30" height="30" as="alternateBounds" />
          </mxGeometry>
        </mxCell>
        <mxCell id="PnS3_9tSfcJmIM3trs_2-13" value="Password" style="shape=partialRectangle;connectable=0;fillColor=none;top=0;left=0;bottom=0;right=0;align=left;spacingLeft=6;overflow=hidden;whiteSpace=wrap;html=1;" parent="PnS3_9tSfcJmIM3trs_2-11" vertex="1">
          <mxGeometry x="30" width="150" height="30" as="geometry">
            <mxRectangle width="150" height="30" as="alternateBounds" />
          </mxGeometry>
        </mxCell>
        <mxCell id="yi_Yexmqdc4H_DpwjOmm-1" value="" style="shape=tableRow;horizontal=0;startSize=0;swimlaneHead=0;swimlaneBody=0;fillColor=none;collapsible=0;dropTarget=0;points=[[0,0.5],[1,0.5]];portConstraint=eastwest;top=0;left=0;right=0;bottom=0;" parent="PnS3_9tSfcJmIM3trs_2-1" vertex="1">
          <mxGeometry y="150" width="180" height="30" as="geometry" />
        </mxCell>
        <mxCell id="yi_Yexmqdc4H_DpwjOmm-2" value="" style="shape=partialRectangle;connectable=0;fillColor=none;top=0;left=0;bottom=0;right=0;editable=1;overflow=hidden;whiteSpace=wrap;html=1;" parent="yi_Yexmqdc4H_DpwjOmm-1" vertex="1">
          <mxGeometry width="30" height="30" as="geometry">
            <mxRectangle width="30" height="30" as="alternateBounds" />
          </mxGeometry>
        </mxCell>
        <mxCell id="yi_Yexmqdc4H_DpwjOmm-3" value="Address" style="shape=partialRectangle;connectable=0;fillColor=none;top=0;left=0;bottom=0;right=0;align=left;spacingLeft=6;overflow=hidden;whiteSpace=wrap;html=1;" parent="yi_Yexmqdc4H_DpwjOmm-1" vertex="1">
          <mxGeometry x="30" width="150" height="30" as="geometry">
            <mxRectangle width="150" height="30" as="alternateBounds" />
          </mxGeometry>
        </mxCell>
        <mxCell id="_hAfEMXbzLU0OHn5FJXj-1" value="" style="shape=tableRow;horizontal=0;startSize=0;swimlaneHead=0;swimlaneBody=0;fillColor=none;collapsible=0;dropTarget=0;points=[[0,0.5],[1,0.5]];portConstraint=eastwest;top=0;left=0;right=0;bottom=0;" parent="PnS3_9tSfcJmIM3trs_2-1" vertex="1">
          <mxGeometry y="180" width="180" height="30" as="geometry" />
        </mxCell>
        <mxCell id="_hAfEMXbzLU0OHn5FJXj-2" value="" style="shape=partialRectangle;connectable=0;fillColor=none;top=0;left=0;bottom=0;right=0;editable=1;overflow=hidden;whiteSpace=wrap;html=1;" parent="_hAfEMXbzLU0OHn5FJXj-1" vertex="1">
          <mxGeometry width="30" height="30" as="geometry">
            <mxRectangle width="30" height="30" as="alternateBounds" />
          </mxGeometry>
        </mxCell>
        <mxCell id="_hAfEMXbzLU0OHn5FJXj-3" value="Phone" style="shape=partialRectangle;connectable=0;fillColor=none;top=0;left=0;bottom=0;right=0;align=left;spacingLeft=6;overflow=hidden;whiteSpace=wrap;html=1;" parent="_hAfEMXbzLU0OHn5FJXj-1" vertex="1">
          <mxGeometry x="30" width="150" height="30" as="geometry">
            <mxRectangle width="150" height="30" as="alternateBounds" />
          </mxGeometry>
        </mxCell>
        <mxCell id="H1x3hiDTMB4RMei3-Epo-1" value="" style="shape=tableRow;horizontal=0;startSize=0;swimlaneHead=0;swimlaneBody=0;fillColor=none;collapsible=0;dropTarget=0;points=[[0,0.5],[1,0.5]];portConstraint=eastwest;top=0;left=0;right=0;bottom=0;" parent="PnS3_9tSfcJmIM3trs_2-1" vertex="1">
          <mxGeometry y="210" width="180" height="30" as="geometry" />
        </mxCell>
        <mxCell id="H1x3hiDTMB4RMei3-Epo-2" value="" style="shape=partialRectangle;connectable=0;fillColor=none;top=0;left=0;bottom=0;right=0;editable=1;overflow=hidden;whiteSpace=wrap;html=1;" parent="H1x3hiDTMB4RMei3-Epo-1" vertex="1">
          <mxGeometry width="30" height="30" as="geometry">
            <mxRectangle width="30" height="30" as="alternateBounds" />
          </mxGeometry>
        </mxCell>
        <mxCell id="H1x3hiDTMB4RMei3-Epo-3" value="AccountType" style="shape=partialRectangle;connectable=0;fillColor=none;top=0;left=0;bottom=0;right=0;align=left;spacingLeft=6;overflow=hidden;whiteSpace=wrap;html=1;" parent="H1x3hiDTMB4RMei3-Epo-1" vertex="1">
          <mxGeometry x="30" width="150" height="30" as="geometry">
            <mxRectangle width="150" height="30" as="alternateBounds" />
          </mxGeometry>
        </mxCell>
        <mxCell id="2ee6D_jXwpwEKhK5w4Ow-1" value="Order" style="shape=table;startSize=30;container=1;collapsible=1;childLayout=tableLayout;fixedRows=1;rowLines=0;fontStyle=1;align=center;resizeLast=1;html=1;" parent="1" vertex="1">
          <mxGeometry x="460" y="80" width="180" height="330" as="geometry" />
        </mxCell>
        <mxCell id="2ee6D_jXwpwEKhK5w4Ow-2" value="" style="shape=tableRow;horizontal=0;startSize=0;swimlaneHead=0;swimlaneBody=0;fillColor=none;collapsible=0;dropTarget=0;points=[[0,0.5],[1,0.5]];portConstraint=eastwest;top=0;left=0;right=0;bottom=1;" parent="2ee6D_jXwpwEKhK5w4Ow-1" vertex="1">
          <mxGeometry y="30" width="180" height="30" as="geometry" />
        </mxCell>
        <mxCell id="2ee6D_jXwpwEKhK5w4Ow-3" value="PK" style="shape=partialRectangle;connectable=0;fillColor=none;top=0;left=0;bottom=0;right=0;fontStyle=1;overflow=hidden;whiteSpace=wrap;html=1;" parent="2ee6D_jXwpwEKhK5w4Ow-2" vertex="1">
          <mxGeometry width="30" height="30" as="geometry">
            <mxRectangle width="30" height="30" as="alternateBounds" />
          </mxGeometry>
        </mxCell>
        <mxCell id="2ee6D_jXwpwEKhK5w4Ow-4" value="ID" style="shape=partialRectangle;connectable=0;fillColor=none;top=0;left=0;bottom=0;right=0;align=left;spacingLeft=6;fontStyle=5;overflow=hidden;whiteSpace=wrap;html=1;" parent="2ee6D_jXwpwEKhK5w4Ow-2" vertex="1">
          <mxGeometry x="30" width="150" height="30" as="geometry">
            <mxRectangle width="150" height="30" as="alternateBounds" />
          </mxGeometry>
        </mxCell>
        <mxCell id="2ee6D_jXwpwEKhK5w4Ow-5" value="" style="shape=tableRow;horizontal=0;startSize=0;swimlaneHead=0;swimlaneBody=0;fillColor=none;collapsible=0;dropTarget=0;points=[[0,0.5],[1,0.5]];portConstraint=eastwest;top=0;left=0;right=0;bottom=0;" parent="2ee6D_jXwpwEKhK5w4Ow-1" vertex="1">
          <mxGeometry y="60" width="180" height="30" as="geometry" />
        </mxCell>
        <mxCell id="2ee6D_jXwpwEKhK5w4Ow-6" value="" style="shape=partialRectangle;connectable=0;fillColor=none;top=0;left=0;bottom=0;right=0;editable=1;overflow=hidden;whiteSpace=wrap;html=1;" parent="2ee6D_jXwpwEKhK5w4Ow-5" vertex="1">
          <mxGeometry width="30" height="30" as="geometry">
            <mxRectangle width="30" height="30" as="alternateBounds" />
          </mxGeometry>
        </mxCell>
        <mxCell id="2ee6D_jXwpwEKhK5w4Ow-7" value="Amount" style="shape=partialRectangle;connectable=0;fillColor=none;top=0;left=0;bottom=0;right=0;align=left;spacingLeft=6;overflow=hidden;whiteSpace=wrap;html=1;" parent="2ee6D_jXwpwEKhK5w4Ow-5" vertex="1">
          <mxGeometry x="30" width="150" height="30" as="geometry">
            <mxRectangle width="150" height="30" as="alternateBounds" />
          </mxGeometry>
        </mxCell>
        <mxCell id="2ee6D_jXwpwEKhK5w4Ow-8" value="" style="shape=tableRow;horizontal=0;startSize=0;swimlaneHead=0;swimlaneBody=0;fillColor=none;collapsible=0;dropTarget=0;points=[[0,0.5],[1,0.5]];portConstraint=eastwest;top=0;left=0;right=0;bottom=0;" parent="2ee6D_jXwpwEKhK5w4Ow-1" vertex="1">
          <mxGeometry y="90" width="180" height="30" as="geometry" />
        </mxCell>
        <mxCell id="2ee6D_jXwpwEKhK5w4Ow-9" value="" style="shape=partialRectangle;connectable=0;fillColor=none;top=0;left=0;bottom=0;right=0;editable=1;overflow=hidden;whiteSpace=wrap;html=1;" parent="2ee6D_jXwpwEKhK5w4Ow-8" vertex="1">
          <mxGeometry width="30" height="30" as="geometry">
            <mxRectangle width="30" height="30" as="alternateBounds" />
          </mxGeometry>
        </mxCell>
        <mxCell id="2ee6D_jXwpwEKhK5w4Ow-10" value="Status" style="shape=partialRectangle;connectable=0;fillColor=none;top=0;left=0;bottom=0;right=0;align=left;spacingLeft=6;overflow=hidden;whiteSpace=wrap;html=1;" parent="2ee6D_jXwpwEKhK5w4Ow-8" vertex="1">
          <mxGeometry x="30" width="150" height="30" as="geometry">
            <mxRectangle width="150" height="30" as="alternateBounds" />
          </mxGeometry>
        </mxCell>
        <mxCell id="WKrxnbairZsMJTkmYDIB-1" value="" style="shape=tableRow;horizontal=0;startSize=0;swimlaneHead=0;swimlaneBody=0;fillColor=none;collapsible=0;dropTarget=0;points=[[0,0.5],[1,0.5]];portConstraint=eastwest;top=0;left=0;right=0;bottom=0;" parent="2ee6D_jXwpwEKhK5w4Ow-1" vertex="1">
          <mxGeometry y="120" width="180" height="30" as="geometry" />
        </mxCell>
        <mxCell id="WKrxnbairZsMJTkmYDIB-2" value="" style="shape=partialRectangle;connectable=0;fillColor=none;top=0;left=0;bottom=0;right=0;editable=1;overflow=hidden;whiteSpace=wrap;html=1;" parent="WKrxnbairZsMJTkmYDIB-1" vertex="1">
          <mxGeometry width="30" height="30" as="geometry">
            <mxRectangle width="30" height="30" as="alternateBounds" />
          </mxGeometry>
        </mxCell>
        <mxCell id="WKrxnbairZsMJTkmYDIB-3" value="&lt;i&gt;CreationDate&lt;/i&gt;" style="shape=partialRectangle;connectable=0;fillColor=none;top=0;left=0;bottom=0;right=0;align=left;spacingLeft=6;overflow=hidden;whiteSpace=wrap;html=1;" parent="WKrxnbairZsMJTkmYDIB-1" vertex="1">
          <mxGeometry x="30" width="150" height="30" as="geometry">
            <mxRectangle width="150" height="30" as="alternateBounds" />
          </mxGeometry>
        </mxCell>
        <mxCell id="3TXQc94TFfiZ9i8eixxK-30" value="" style="shape=tableRow;horizontal=0;startSize=0;swimlaneHead=0;swimlaneBody=0;fillColor=none;collapsible=0;dropTarget=0;points=[[0,0.5],[1,0.5]];portConstraint=eastwest;top=0;left=0;right=0;bottom=0;" parent="2ee6D_jXwpwEKhK5w4Ow-1" vertex="1">
          <mxGeometry y="150" width="180" height="30" as="geometry" />
        </mxCell>
        <mxCell id="3TXQc94TFfiZ9i8eixxK-31" value="" style="shape=partialRectangle;connectable=0;fillColor=none;top=0;left=0;bottom=0;right=0;editable=1;overflow=hidden;whiteSpace=wrap;html=1;" parent="3TXQc94TFfiZ9i8eixxK-30" vertex="1">
          <mxGeometry width="30" height="30" as="geometry">
            <mxRectangle width="30" height="30" as="alternateBounds" />
          </mxGeometry>
        </mxCell>
        <mxCell id="3TXQc94TFfiZ9i8eixxK-32" value="&lt;i&gt;UpdateDate&lt;/i&gt;" style="shape=partialRectangle;connectable=0;fillColor=none;top=0;left=0;bottom=0;right=0;align=left;spacingLeft=6;overflow=hidden;whiteSpace=wrap;html=1;" parent="3TXQc94TFfiZ9i8eixxK-30" vertex="1">
          <mxGeometry x="30" width="150" height="30" as="geometry">
            <mxRectangle width="150" height="30" as="alternateBounds" />
          </mxGeometry>
        </mxCell>
        <mxCell id="7-hzM5oVvFSxxmpgiV0O-1" value="" style="shape=tableRow;horizontal=0;startSize=0;swimlaneHead=0;swimlaneBody=0;fillColor=none;collapsible=0;dropTarget=0;points=[[0,0.5],[1,0.5]];portConstraint=eastwest;top=0;left=0;right=0;bottom=0;" parent="2ee6D_jXwpwEKhK5w4Ow-1" vertex="1">
          <mxGeometry y="180" width="180" height="30" as="geometry" />
        </mxCell>
        <mxCell id="7-hzM5oVvFSxxmpgiV0O-2" value="" style="shape=partialRectangle;connectable=0;fillColor=none;top=0;left=0;bottom=0;right=0;editable=1;overflow=hidden;whiteSpace=wrap;html=1;" parent="7-hzM5oVvFSxxmpgiV0O-1" vertex="1">
          <mxGeometry width="30" height="30" as="geometry">
            <mxRectangle width="30" height="30" as="alternateBounds" />
          </mxGeometry>
        </mxCell>
        <mxCell id="7-hzM5oVvFSxxmpgiV0O-3" value="ShippingDate" style="shape=partialRectangle;connectable=0;fillColor=none;top=0;left=0;bottom=0;right=0;align=left;spacingLeft=6;overflow=hidden;whiteSpace=wrap;html=1;" parent="7-hzM5oVvFSxxmpgiV0O-1" vertex="1">
          <mxGeometry x="30" width="150" height="30" as="geometry">
            <mxRectangle width="150" height="30" as="alternateBounds" />
          </mxGeometry>
        </mxCell>
        <mxCell id="7-hzM5oVvFSxxmpgiV0O-4" value="" style="shape=tableRow;horizontal=0;startSize=0;swimlaneHead=0;swimlaneBody=0;fillColor=none;collapsible=0;dropTarget=0;points=[[0,0.5],[1,0.5]];portConstraint=eastwest;top=0;left=0;right=0;bottom=0;" parent="2ee6D_jXwpwEKhK5w4Ow-1" vertex="1">
          <mxGeometry y="210" width="180" height="30" as="geometry" />
        </mxCell>
        <mxCell id="7-hzM5oVvFSxxmpgiV0O-5" value="" style="shape=partialRectangle;connectable=0;fillColor=none;top=0;left=0;bottom=0;right=0;editable=1;overflow=hidden;whiteSpace=wrap;html=1;" parent="7-hzM5oVvFSxxmpgiV0O-4" vertex="1">
          <mxGeometry width="30" height="30" as="geometry">
            <mxRectangle width="30" height="30" as="alternateBounds" />
          </mxGeometry>
        </mxCell>
        <mxCell id="7-hzM5oVvFSxxmpgiV0O-6" value="ShippingFee" style="shape=partialRectangle;connectable=0;fillColor=none;top=0;left=0;bottom=0;right=0;align=left;spacingLeft=6;overflow=hidden;whiteSpace=wrap;html=1;" parent="7-hzM5oVvFSxxmpgiV0O-4" vertex="1">
          <mxGeometry x="30" width="150" height="30" as="geometry">
            <mxRectangle width="150" height="30" as="alternateBounds" />
          </mxGeometry>
        </mxCell>
        <mxCell id="3TXQc94TFfiZ9i8eixxK-52" value="" style="shape=tableRow;horizontal=0;startSize=0;swimlaneHead=0;swimlaneBody=0;fillColor=none;collapsible=0;dropTarget=0;points=[[0,0.5],[1,0.5]];portConstraint=eastwest;top=0;left=0;right=0;bottom=0;" parent="2ee6D_jXwpwEKhK5w4Ow-1" vertex="1">
          <mxGeometry y="240" width="180" height="30" as="geometry" />
        </mxCell>
        <mxCell id="3TXQc94TFfiZ9i8eixxK-53" value="&lt;b&gt;FK&lt;/b&gt;" style="shape=partialRectangle;connectable=0;fillColor=none;top=0;left=0;bottom=0;right=0;editable=1;overflow=hidden;whiteSpace=wrap;html=1;" parent="3TXQc94TFfiZ9i8eixxK-52" vertex="1">
          <mxGeometry width="30" height="30" as="geometry">
            <mxRectangle width="30" height="30" as="alternateBounds" />
          </mxGeometry>
        </mxCell>
        <mxCell id="3TXQc94TFfiZ9i8eixxK-54" value="&lt;i&gt;UserId&lt;/i&gt;" style="shape=partialRectangle;connectable=0;fillColor=none;top=0;left=0;bottom=0;right=0;align=left;spacingLeft=6;overflow=hidden;whiteSpace=wrap;html=1;" parent="3TXQc94TFfiZ9i8eixxK-52" vertex="1">
          <mxGeometry x="30" width="150" height="30" as="geometry">
            <mxRectangle width="150" height="30" as="alternateBounds" />
          </mxGeometry>
        </mxCell>
        <mxCell id="7-hzM5oVvFSxxmpgiV0O-7" value="" style="shape=tableRow;horizontal=0;startSize=0;swimlaneHead=0;swimlaneBody=0;fillColor=none;collapsible=0;dropTarget=0;points=[[0,0.5],[1,0.5]];portConstraint=eastwest;top=0;left=0;right=0;bottom=0;" parent="2ee6D_jXwpwEKhK5w4Ow-1" vertex="1">
          <mxGeometry y="270" width="180" height="30" as="geometry" />
        </mxCell>
        <mxCell id="7-hzM5oVvFSxxmpgiV0O-8" value="&lt;b&gt;N&lt;/b&gt;" style="shape=partialRectangle;connectable=0;fillColor=none;top=0;left=0;bottom=0;right=0;editable=1;overflow=hidden;whiteSpace=wrap;html=1;" parent="7-hzM5oVvFSxxmpgiV0O-7" vertex="1">
          <mxGeometry width="30" height="30" as="geometry">
            <mxRectangle width="30" height="30" as="alternateBounds" />
          </mxGeometry>
        </mxCell>
        <mxCell id="7-hzM5oVvFSxxmpgiV0O-9" value="&lt;font style=&quot;color: rgb(153, 153, 255);&quot;&gt;User&lt;/font&gt;" style="shape=partialRectangle;connectable=0;fillColor=none;top=0;left=0;bottom=0;right=0;align=left;spacingLeft=6;overflow=hidden;whiteSpace=wrap;html=1;" parent="7-hzM5oVvFSxxmpgiV0O-7" vertex="1">
          <mxGeometry x="30" width="150" height="30" as="geometry">
            <mxRectangle width="150" height="30" as="alternateBounds" />
          </mxGeometry>
        </mxCell>
        <mxCell id="oTkE2LoS7B3wDLiNLpWx-2" value="" style="shape=tableRow;horizontal=0;startSize=0;swimlaneHead=0;swimlaneBody=0;fillColor=none;collapsible=0;dropTarget=0;points=[[0,0.5],[1,0.5]];portConstraint=eastwest;top=0;left=0;right=0;bottom=0;" parent="2ee6D_jXwpwEKhK5w4Ow-1" vertex="1">
          <mxGeometry y="300" width="180" height="30" as="geometry" />
        </mxCell>
        <mxCell id="oTkE2LoS7B3wDLiNLpWx-3" value="&lt;b&gt;N&lt;/b&gt;" style="shape=partialRectangle;connectable=0;fillColor=none;top=0;left=0;bottom=0;right=0;editable=1;overflow=hidden;whiteSpace=wrap;html=1;" parent="oTkE2LoS7B3wDLiNLpWx-2" vertex="1">
          <mxGeometry width="30" height="30" as="geometry">
            <mxRectangle width="30" height="30" as="alternateBounds" />
          </mxGeometry>
        </mxCell>
        <mxCell id="oTkE2LoS7B3wDLiNLpWx-4" value="&lt;font style=&quot;color: rgb(153, 153, 255);&quot;&gt;Payment&lt;/font&gt;" style="shape=partialRectangle;connectable=0;fillColor=none;top=0;left=0;bottom=0;right=0;align=left;spacingLeft=6;overflow=hidden;whiteSpace=wrap;html=1;" parent="oTkE2LoS7B3wDLiNLpWx-2" vertex="1">
          <mxGeometry x="30" width="150" height="30" as="geometry">
            <mxRectangle width="150" height="30" as="alternateBounds" />
          </mxGeometry>
        </mxCell>
        <mxCell id="4U4OpnXmxgGwjBFbEaca-1" value="Product" style="shape=table;startSize=30;container=1;collapsible=1;childLayout=tableLayout;fixedRows=1;rowLines=0;fontStyle=1;align=center;resizeLast=1;html=1;" parent="1" vertex="1">
          <mxGeometry x="1010" y="60" width="180" height="450" as="geometry" />
        </mxCell>
        <mxCell id="4U4OpnXmxgGwjBFbEaca-2" value="" style="shape=tableRow;horizontal=0;startSize=0;swimlaneHead=0;swimlaneBody=0;fillColor=none;collapsible=0;dropTarget=0;points=[[0,0.5],[1,0.5]];portConstraint=eastwest;top=0;left=0;right=0;bottom=1;" parent="4U4OpnXmxgGwjBFbEaca-1" vertex="1">
          <mxGeometry y="30" width="180" height="30" as="geometry" />
        </mxCell>
        <mxCell id="4U4OpnXmxgGwjBFbEaca-3" value="PK" style="shape=partialRectangle;connectable=0;fillColor=none;top=0;left=0;bottom=0;right=0;fontStyle=1;overflow=hidden;whiteSpace=wrap;html=1;" parent="4U4OpnXmxgGwjBFbEaca-2" vertex="1">
          <mxGeometry width="30" height="30" as="geometry">
            <mxRectangle width="30" height="30" as="alternateBounds" />
          </mxGeometry>
        </mxCell>
        <mxCell id="4U4OpnXmxgGwjBFbEaca-4" value="ID" style="shape=partialRectangle;connectable=0;fillColor=none;top=0;left=0;bottom=0;right=0;align=left;spacingLeft=6;fontStyle=5;overflow=hidden;whiteSpace=wrap;html=1;" parent="4U4OpnXmxgGwjBFbEaca-2" vertex="1">
          <mxGeometry x="30" width="150" height="30" as="geometry">
            <mxRectangle width="150" height="30" as="alternateBounds" />
          </mxGeometry>
        </mxCell>
        <mxCell id="4U4OpnXmxgGwjBFbEaca-5" value="" style="shape=tableRow;horizontal=0;startSize=0;swimlaneHead=0;swimlaneBody=0;fillColor=none;collapsible=0;dropTarget=0;points=[[0,0.5],[1,0.5]];portConstraint=eastwest;top=0;left=0;right=0;bottom=0;" parent="4U4OpnXmxgGwjBFbEaca-1" vertex="1">
          <mxGeometry y="60" width="180" height="30" as="geometry" />
        </mxCell>
        <mxCell id="4U4OpnXmxgGwjBFbEaca-6" value="" style="shape=partialRectangle;connectable=0;fillColor=none;top=0;left=0;bottom=0;right=0;editable=1;overflow=hidden;whiteSpace=wrap;html=1;" parent="4U4OpnXmxgGwjBFbEaca-5" vertex="1">
          <mxGeometry width="30" height="30" as="geometry">
            <mxRectangle width="30" height="30" as="alternateBounds" />
          </mxGeometry>
        </mxCell>
        <mxCell id="4U4OpnXmxgGwjBFbEaca-7" value="Name" style="shape=partialRectangle;connectable=0;fillColor=none;top=0;left=0;bottom=0;right=0;align=left;spacingLeft=6;overflow=hidden;whiteSpace=wrap;html=1;" parent="4U4OpnXmxgGwjBFbEaca-5" vertex="1">
          <mxGeometry x="30" width="150" height="30" as="geometry">
            <mxRectangle width="150" height="30" as="alternateBounds" />
          </mxGeometry>
        </mxCell>
        <mxCell id="4U4OpnXmxgGwjBFbEaca-8" value="" style="shape=tableRow;horizontal=0;startSize=0;swimlaneHead=0;swimlaneBody=0;fillColor=none;collapsible=0;dropTarget=0;points=[[0,0.5],[1,0.5]];portConstraint=eastwest;top=0;left=0;right=0;bottom=0;" parent="4U4OpnXmxgGwjBFbEaca-1" vertex="1">
          <mxGeometry y="90" width="180" height="30" as="geometry" />
        </mxCell>
        <mxCell id="4U4OpnXmxgGwjBFbEaca-9" value="" style="shape=partialRectangle;connectable=0;fillColor=none;top=0;left=0;bottom=0;right=0;editable=1;overflow=hidden;whiteSpace=wrap;html=1;" parent="4U4OpnXmxgGwjBFbEaca-8" vertex="1">
          <mxGeometry width="30" height="30" as="geometry">
            <mxRectangle width="30" height="30" as="alternateBounds" />
          </mxGeometry>
        </mxCell>
        <mxCell id="4U4OpnXmxgGwjBFbEaca-10" value="Description" style="shape=partialRectangle;connectable=0;fillColor=none;top=0;left=0;bottom=0;right=0;align=left;spacingLeft=6;overflow=hidden;whiteSpace=wrap;html=1;" parent="4U4OpnXmxgGwjBFbEaca-8" vertex="1">
          <mxGeometry x="30" width="150" height="30" as="geometry">
            <mxRectangle width="150" height="30" as="alternateBounds" />
          </mxGeometry>
        </mxCell>
        <mxCell id="4U4OpnXmxgGwjBFbEaca-17" value="" style="shape=tableRow;horizontal=0;startSize=0;swimlaneHead=0;swimlaneBody=0;fillColor=none;collapsible=0;dropTarget=0;points=[[0,0.5],[1,0.5]];portConstraint=eastwest;top=0;left=0;right=0;bottom=0;" parent="4U4OpnXmxgGwjBFbEaca-1" vertex="1">
          <mxGeometry y="120" width="180" height="30" as="geometry" />
        </mxCell>
        <mxCell id="4U4OpnXmxgGwjBFbEaca-18" value="" style="shape=partialRectangle;connectable=0;fillColor=none;top=0;left=0;bottom=0;right=0;editable=1;overflow=hidden;whiteSpace=wrap;html=1;" parent="4U4OpnXmxgGwjBFbEaca-17" vertex="1">
          <mxGeometry width="30" height="30" as="geometry">
            <mxRectangle width="30" height="30" as="alternateBounds" />
          </mxGeometry>
        </mxCell>
        <mxCell id="4U4OpnXmxgGwjBFbEaca-19" value="Price" style="shape=partialRectangle;connectable=0;fillColor=none;top=0;left=0;bottom=0;right=0;align=left;spacingLeft=6;overflow=hidden;whiteSpace=wrap;html=1;" parent="4U4OpnXmxgGwjBFbEaca-17" vertex="1">
          <mxGeometry x="30" width="150" height="30" as="geometry">
            <mxRectangle width="150" height="30" as="alternateBounds" />
          </mxGeometry>
        </mxCell>
        <mxCell id="4U4OpnXmxgGwjBFbEaca-20" value="" style="shape=tableRow;horizontal=0;startSize=0;swimlaneHead=0;swimlaneBody=0;fillColor=none;collapsible=0;dropTarget=0;points=[[0,0.5],[1,0.5]];portConstraint=eastwest;top=0;left=0;right=0;bottom=0;" parent="4U4OpnXmxgGwjBFbEaca-1" vertex="1">
          <mxGeometry y="150" width="180" height="30" as="geometry" />
        </mxCell>
        <mxCell id="4U4OpnXmxgGwjBFbEaca-21" value="" style="shape=partialRectangle;connectable=0;fillColor=none;top=0;left=0;bottom=0;right=0;editable=1;overflow=hidden;whiteSpace=wrap;html=1;" parent="4U4OpnXmxgGwjBFbEaca-20" vertex="1">
          <mxGeometry width="30" height="30" as="geometry">
            <mxRectangle width="30" height="30" as="alternateBounds" />
          </mxGeometry>
        </mxCell>
        <mxCell id="4U4OpnXmxgGwjBFbEaca-22" value="HasDiscount" style="shape=partialRectangle;connectable=0;fillColor=none;top=0;left=0;bottom=0;right=0;align=left;spacingLeft=6;overflow=hidden;whiteSpace=wrap;html=1;" parent="4U4OpnXmxgGwjBFbEaca-20" vertex="1">
          <mxGeometry x="30" width="150" height="30" as="geometry">
            <mxRectangle width="150" height="30" as="alternateBounds" />
          </mxGeometry>
        </mxCell>
        <mxCell id="hYmiIDT6j4NtPViQ4_Rz-1" value="" style="shape=tableRow;horizontal=0;startSize=0;swimlaneHead=0;swimlaneBody=0;fillColor=none;collapsible=0;dropTarget=0;points=[[0,0.5],[1,0.5]];portConstraint=eastwest;top=0;left=0;right=0;bottom=0;" parent="4U4OpnXmxgGwjBFbEaca-1" vertex="1">
          <mxGeometry y="180" width="180" height="30" as="geometry" />
        </mxCell>
        <mxCell id="hYmiIDT6j4NtPViQ4_Rz-2" value="" style="shape=partialRectangle;connectable=0;fillColor=none;top=0;left=0;bottom=0;right=0;editable=1;overflow=hidden;whiteSpace=wrap;html=1;" parent="hYmiIDT6j4NtPViQ4_Rz-1" vertex="1">
          <mxGeometry width="30" height="30" as="geometry">
            <mxRectangle width="30" height="30" as="alternateBounds" />
          </mxGeometry>
        </mxCell>
        <mxCell id="hYmiIDT6j4NtPViQ4_Rz-3" value="Discount" style="shape=partialRectangle;connectable=0;fillColor=none;top=0;left=0;bottom=0;right=0;align=left;spacingLeft=6;overflow=hidden;whiteSpace=wrap;html=1;" parent="hYmiIDT6j4NtPViQ4_Rz-1" vertex="1">
          <mxGeometry x="30" width="150" height="30" as="geometry">
            <mxRectangle width="150" height="30" as="alternateBounds" />
          </mxGeometry>
        </mxCell>
        <mxCell id="A9_aEqYZ5DUL1UfFBi70-1" value="" style="shape=tableRow;horizontal=0;startSize=0;swimlaneHead=0;swimlaneBody=0;fillColor=none;collapsible=0;dropTarget=0;points=[[0,0.5],[1,0.5]];portConstraint=eastwest;top=0;left=0;right=0;bottom=0;" parent="4U4OpnXmxgGwjBFbEaca-1" vertex="1">
          <mxGeometry y="210" width="180" height="30" as="geometry" />
        </mxCell>
        <mxCell id="A9_aEqYZ5DUL1UfFBi70-2" value="" style="shape=partialRectangle;connectable=0;fillColor=none;top=0;left=0;bottom=0;right=0;editable=1;overflow=hidden;whiteSpace=wrap;html=1;" parent="A9_aEqYZ5DUL1UfFBi70-1" vertex="1">
          <mxGeometry width="30" height="30" as="geometry">
            <mxRectangle width="30" height="30" as="alternateBounds" />
          </mxGeometry>
        </mxCell>
        <mxCell id="A9_aEqYZ5DUL1UfFBi70-3" value="UnitsInStock" style="shape=partialRectangle;connectable=0;fillColor=none;top=0;left=0;bottom=0;right=0;align=left;spacingLeft=6;overflow=hidden;whiteSpace=wrap;html=1;" parent="A9_aEqYZ5DUL1UfFBi70-1" vertex="1">
          <mxGeometry x="30" width="150" height="30" as="geometry">
            <mxRectangle width="150" height="30" as="alternateBounds" />
          </mxGeometry>
        </mxCell>
        <mxCell id="BQqeKhYRISQnu3tn1PhA-58" value="" style="shape=tableRow;horizontal=0;startSize=0;swimlaneHead=0;swimlaneBody=0;fillColor=none;collapsible=0;dropTarget=0;points=[[0,0.5],[1,0.5]];portConstraint=eastwest;top=0;left=0;right=0;bottom=0;" parent="4U4OpnXmxgGwjBFbEaca-1" vertex="1">
          <mxGeometry y="240" width="180" height="30" as="geometry" />
        </mxCell>
        <mxCell id="BQqeKhYRISQnu3tn1PhA-59" value="&lt;b&gt;FK&lt;/b&gt;" style="shape=partialRectangle;connectable=0;fillColor=none;top=0;left=0;bottom=0;right=0;editable=1;overflow=hidden;whiteSpace=wrap;html=1;" parent="BQqeKhYRISQnu3tn1PhA-58" vertex="1">
          <mxGeometry width="30" height="30" as="geometry">
            <mxRectangle width="30" height="30" as="alternateBounds" />
          </mxGeometry>
        </mxCell>
        <mxCell id="BQqeKhYRISQnu3tn1PhA-60" value="&lt;i&gt;BrandId&lt;/i&gt;" style="shape=partialRectangle;connectable=0;fillColor=none;top=0;left=0;bottom=0;right=0;align=left;spacingLeft=6;overflow=hidden;whiteSpace=wrap;html=1;" parent="BQqeKhYRISQnu3tn1PhA-58" vertex="1">
          <mxGeometry x="30" width="150" height="30" as="geometry">
            <mxRectangle width="150" height="30" as="alternateBounds" />
          </mxGeometry>
        </mxCell>
        <mxCell id="fV3Jw0ZbvpxctWgqgsTK-1" value="" style="shape=tableRow;horizontal=0;startSize=0;swimlaneHead=0;swimlaneBody=0;fillColor=none;collapsible=0;dropTarget=0;points=[[0,0.5],[1,0.5]];portConstraint=eastwest;top=0;left=0;right=0;bottom=0;" parent="4U4OpnXmxgGwjBFbEaca-1" vertex="1">
          <mxGeometry y="270" width="180" height="30" as="geometry" />
        </mxCell>
        <mxCell id="fV3Jw0ZbvpxctWgqgsTK-2" value="&lt;b&gt;FK&lt;/b&gt;" style="shape=partialRectangle;connectable=0;fillColor=none;top=0;left=0;bottom=0;right=0;editable=1;overflow=hidden;whiteSpace=wrap;html=1;" parent="fV3Jw0ZbvpxctWgqgsTK-1" vertex="1">
          <mxGeometry width="30" height="30" as="geometry">
            <mxRectangle width="30" height="30" as="alternateBounds" />
          </mxGeometry>
        </mxCell>
        <mxCell id="fV3Jw0ZbvpxctWgqgsTK-3" value="&lt;i&gt;CategoryId&lt;/i&gt;" style="shape=partialRectangle;connectable=0;fillColor=none;top=0;left=0;bottom=0;right=0;align=left;spacingLeft=6;overflow=hidden;whiteSpace=wrap;html=1;" parent="fV3Jw0ZbvpxctWgqgsTK-1" vertex="1">
          <mxGeometry x="30" width="150" height="30" as="geometry">
            <mxRectangle width="150" height="30" as="alternateBounds" />
          </mxGeometry>
        </mxCell>
        <mxCell id="7-hzM5oVvFSxxmpgiV0O-10" value="" style="shape=tableRow;horizontal=0;startSize=0;swimlaneHead=0;swimlaneBody=0;fillColor=none;collapsible=0;dropTarget=0;points=[[0,0.5],[1,0.5]];portConstraint=eastwest;top=0;left=0;right=0;bottom=0;" parent="4U4OpnXmxgGwjBFbEaca-1" vertex="1">
          <mxGeometry y="300" width="180" height="30" as="geometry" />
        </mxCell>
        <mxCell id="7-hzM5oVvFSxxmpgiV0O-11" value="&lt;b&gt;N&lt;/b&gt;" style="shape=partialRectangle;connectable=0;fillColor=none;top=0;left=0;bottom=0;right=0;editable=1;overflow=hidden;whiteSpace=wrap;html=1;" parent="7-hzM5oVvFSxxmpgiV0O-10" vertex="1">
          <mxGeometry width="30" height="30" as="geometry">
            <mxRectangle width="30" height="30" as="alternateBounds" />
          </mxGeometry>
        </mxCell>
        <mxCell id="7-hzM5oVvFSxxmpgiV0O-12" value="&lt;font style=&quot;color: rgb(153, 153, 255);&quot;&gt;Category&lt;/font&gt;" style="shape=partialRectangle;connectable=0;fillColor=none;top=0;left=0;bottom=0;right=0;align=left;spacingLeft=6;overflow=hidden;whiteSpace=wrap;html=1;" parent="7-hzM5oVvFSxxmpgiV0O-10" vertex="1">
          <mxGeometry x="30" width="150" height="30" as="geometry">
            <mxRectangle width="150" height="30" as="alternateBounds" />
          </mxGeometry>
        </mxCell>
        <mxCell id="BQqeKhYRISQnu3tn1PhA-61" value="" style="shape=tableRow;horizontal=0;startSize=0;swimlaneHead=0;swimlaneBody=0;fillColor=none;collapsible=0;dropTarget=0;points=[[0,0.5],[1,0.5]];portConstraint=eastwest;top=0;left=0;right=0;bottom=0;" parent="4U4OpnXmxgGwjBFbEaca-1" vertex="1">
          <mxGeometry y="330" width="180" height="30" as="geometry" />
        </mxCell>
        <mxCell id="BQqeKhYRISQnu3tn1PhA-62" value="&lt;b&gt;N&lt;/b&gt;" style="shape=partialRectangle;connectable=0;fillColor=none;top=0;left=0;bottom=0;right=0;editable=1;overflow=hidden;whiteSpace=wrap;html=1;" parent="BQqeKhYRISQnu3tn1PhA-61" vertex="1">
          <mxGeometry width="30" height="30" as="geometry">
            <mxRectangle width="30" height="30" as="alternateBounds" />
          </mxGeometry>
        </mxCell>
        <mxCell id="BQqeKhYRISQnu3tn1PhA-63" value="&lt;font style=&quot;color: rgb(153, 153, 255);&quot;&gt;Brand&lt;/font&gt;" style="shape=partialRectangle;connectable=0;fillColor=none;top=0;left=0;bottom=0;right=0;align=left;spacingLeft=6;overflow=hidden;whiteSpace=wrap;html=1;" parent="BQqeKhYRISQnu3tn1PhA-61" vertex="1">
          <mxGeometry x="30" width="150" height="30" as="geometry">
            <mxRectangle width="150" height="30" as="alternateBounds" />
          </mxGeometry>
        </mxCell>
        <mxCell id="BQqeKhYRISQnu3tn1PhA-68" value="" style="shape=tableRow;horizontal=0;startSize=0;swimlaneHead=0;swimlaneBody=0;fillColor=none;collapsible=0;dropTarget=0;points=[[0,0.5],[1,0.5]];portConstraint=eastwest;top=0;left=0;right=0;bottom=0;" parent="4U4OpnXmxgGwjBFbEaca-1" vertex="1">
          <mxGeometry y="360" width="180" height="30" as="geometry" />
        </mxCell>
        <mxCell id="BQqeKhYRISQnu3tn1PhA-69" value="&lt;b&gt;N&lt;/b&gt;" style="shape=partialRectangle;connectable=0;fillColor=none;top=0;left=0;bottom=0;right=0;editable=1;overflow=hidden;whiteSpace=wrap;html=1;" parent="BQqeKhYRISQnu3tn1PhA-68" vertex="1">
          <mxGeometry width="30" height="30" as="geometry">
            <mxRectangle width="30" height="30" as="alternateBounds" />
          </mxGeometry>
        </mxCell>
        <mxCell id="BQqeKhYRISQnu3tn1PhA-70" value="&lt;font style=&quot;color: rgb(153, 153, 255);&quot;&gt;Color&lt;/font&gt;" style="shape=partialRectangle;connectable=0;fillColor=none;top=0;left=0;bottom=0;right=0;align=left;spacingLeft=6;overflow=hidden;whiteSpace=wrap;html=1;" parent="BQqeKhYRISQnu3tn1PhA-68" vertex="1">
          <mxGeometry x="30" width="150" height="30" as="geometry">
            <mxRectangle width="150" height="30" as="alternateBounds" />
          </mxGeometry>
        </mxCell>
        <mxCell id="pxBdoaDaghtDdXHSV6Uh-53" value="" style="shape=tableRow;horizontal=0;startSize=0;swimlaneHead=0;swimlaneBody=0;fillColor=none;collapsible=0;dropTarget=0;points=[[0,0.5],[1,0.5]];portConstraint=eastwest;top=0;left=0;right=0;bottom=0;" vertex="1" parent="4U4OpnXmxgGwjBFbEaca-1">
          <mxGeometry y="390" width="180" height="30" as="geometry" />
        </mxCell>
        <mxCell id="pxBdoaDaghtDdXHSV6Uh-54" value="&lt;b&gt;FK&lt;/b&gt;" style="shape=partialRectangle;connectable=0;fillColor=none;top=0;left=0;bottom=0;right=0;editable=1;overflow=hidden;whiteSpace=wrap;html=1;" vertex="1" parent="pxBdoaDaghtDdXHSV6Uh-53">
          <mxGeometry width="30" height="30" as="geometry">
            <mxRectangle width="30" height="30" as="alternateBounds" />
          </mxGeometry>
        </mxCell>
        <mxCell id="pxBdoaDaghtDdXHSV6Uh-55" value="&lt;i&gt;CartId&lt;/i&gt;" style="shape=partialRectangle;connectable=0;fillColor=none;top=0;left=0;bottom=0;right=0;align=left;spacingLeft=6;overflow=hidden;whiteSpace=wrap;html=1;" vertex="1" parent="pxBdoaDaghtDdXHSV6Uh-53">
          <mxGeometry x="30" width="150" height="30" as="geometry">
            <mxRectangle width="150" height="30" as="alternateBounds" />
          </mxGeometry>
        </mxCell>
        <mxCell id="pxBdoaDaghtDdXHSV6Uh-57" value="" style="shape=tableRow;horizontal=0;startSize=0;swimlaneHead=0;swimlaneBody=0;fillColor=none;collapsible=0;dropTarget=0;points=[[0,0.5],[1,0.5]];portConstraint=eastwest;top=0;left=0;right=0;bottom=0;" vertex="1" parent="4U4OpnXmxgGwjBFbEaca-1">
          <mxGeometry y="420" width="180" height="30" as="geometry" />
        </mxCell>
        <mxCell id="pxBdoaDaghtDdXHSV6Uh-58" value="&lt;b&gt;FK&lt;/b&gt;" style="shape=partialRectangle;connectable=0;fillColor=none;top=0;left=0;bottom=0;right=0;editable=1;overflow=hidden;whiteSpace=wrap;html=1;" vertex="1" parent="pxBdoaDaghtDdXHSV6Uh-57">
          <mxGeometry width="30" height="30" as="geometry">
            <mxRectangle width="30" height="30" as="alternateBounds" />
          </mxGeometry>
        </mxCell>
        <mxCell id="pxBdoaDaghtDdXHSV6Uh-59" value="&lt;i&gt;WishlistID&lt;/i&gt;" style="shape=partialRectangle;connectable=0;fillColor=none;top=0;left=0;bottom=0;right=0;align=left;spacingLeft=6;overflow=hidden;whiteSpace=wrap;html=1;" vertex="1" parent="pxBdoaDaghtDdXHSV6Uh-57">
          <mxGeometry x="30" width="150" height="30" as="geometry">
            <mxRectangle width="150" height="30" as="alternateBounds" />
          </mxGeometry>
        </mxCell>
        <mxCell id="2YhsQyf3al0HYvHiBbVb-1" value="OrderItem" style="shape=table;startSize=30;container=1;collapsible=1;childLayout=tableLayout;fixedRows=1;rowLines=0;fontStyle=1;align=center;resizeLast=1;html=1;" parent="1" vertex="1">
          <mxGeometry x="730" y="380" width="180" height="180" as="geometry" />
        </mxCell>
        <mxCell id="2YhsQyf3al0HYvHiBbVb-2" value="" style="shape=tableRow;horizontal=0;startSize=0;swimlaneHead=0;swimlaneBody=0;fillColor=none;collapsible=0;dropTarget=0;points=[[0,0.5],[1,0.5]];portConstraint=eastwest;top=0;left=0;right=0;bottom=1;" parent="2YhsQyf3al0HYvHiBbVb-1" vertex="1">
          <mxGeometry y="30" width="180" height="30" as="geometry" />
        </mxCell>
        <mxCell id="2YhsQyf3al0HYvHiBbVb-3" value="PK" style="shape=partialRectangle;connectable=0;fillColor=none;top=0;left=0;bottom=0;right=0;fontStyle=1;overflow=hidden;whiteSpace=wrap;html=1;" parent="2YhsQyf3al0HYvHiBbVb-2" vertex="1">
          <mxGeometry width="30" height="30" as="geometry">
            <mxRectangle width="30" height="30" as="alternateBounds" />
          </mxGeometry>
        </mxCell>
        <mxCell id="2YhsQyf3al0HYvHiBbVb-4" value="OrderID" style="shape=partialRectangle;connectable=0;fillColor=none;top=0;left=0;bottom=0;right=0;align=left;spacingLeft=6;fontStyle=5;overflow=hidden;whiteSpace=wrap;html=1;" parent="2YhsQyf3al0HYvHiBbVb-2" vertex="1">
          <mxGeometry x="30" width="150" height="30" as="geometry">
            <mxRectangle width="150" height="30" as="alternateBounds" />
          </mxGeometry>
        </mxCell>
        <mxCell id="Zo9RFdd3lkhWTu0PTDzz-26" value="" style="shape=tableRow;horizontal=0;startSize=0;swimlaneHead=0;swimlaneBody=0;fillColor=none;collapsible=0;dropTarget=0;points=[[0,0.5],[1,0.5]];portConstraint=eastwest;top=0;left=0;right=0;bottom=1;" parent="2YhsQyf3al0HYvHiBbVb-1" vertex="1">
          <mxGeometry y="60" width="180" height="30" as="geometry" />
        </mxCell>
        <mxCell id="Zo9RFdd3lkhWTu0PTDzz-27" value="PK" style="shape=partialRectangle;connectable=0;fillColor=none;top=0;left=0;bottom=0;right=0;fontStyle=1;overflow=hidden;whiteSpace=wrap;html=1;" parent="Zo9RFdd3lkhWTu0PTDzz-26" vertex="1">
          <mxGeometry width="30" height="30" as="geometry">
            <mxRectangle width="30" height="30" as="alternateBounds" />
          </mxGeometry>
        </mxCell>
        <mxCell id="Zo9RFdd3lkhWTu0PTDzz-28" value="ProductID" style="shape=partialRectangle;connectable=0;fillColor=none;top=0;left=0;bottom=0;right=0;align=left;spacingLeft=6;fontStyle=5;overflow=hidden;whiteSpace=wrap;html=1;" parent="Zo9RFdd3lkhWTu0PTDzz-26" vertex="1">
          <mxGeometry x="30" width="150" height="30" as="geometry">
            <mxRectangle width="150" height="30" as="alternateBounds" />
          </mxGeometry>
        </mxCell>
        <mxCell id="2YhsQyf3al0HYvHiBbVb-8" value="" style="shape=tableRow;horizontal=0;startSize=0;swimlaneHead=0;swimlaneBody=0;fillColor=none;collapsible=0;dropTarget=0;points=[[0,0.5],[1,0.5]];portConstraint=eastwest;top=0;left=0;right=0;bottom=0;" parent="2YhsQyf3al0HYvHiBbVb-1" vertex="1">
          <mxGeometry y="90" width="180" height="30" as="geometry" />
        </mxCell>
        <mxCell id="2YhsQyf3al0HYvHiBbVb-9" value="" style="shape=partialRectangle;connectable=0;fillColor=none;top=0;left=0;bottom=0;right=0;editable=1;overflow=hidden;whiteSpace=wrap;html=1;" parent="2YhsQyf3al0HYvHiBbVb-8" vertex="1">
          <mxGeometry width="30" height="30" as="geometry">
            <mxRectangle width="30" height="30" as="alternateBounds" />
          </mxGeometry>
        </mxCell>
        <mxCell id="2YhsQyf3al0HYvHiBbVb-10" value="Status" style="shape=partialRectangle;connectable=0;fillColor=none;top=0;left=0;bottom=0;right=0;align=left;spacingLeft=6;overflow=hidden;whiteSpace=wrap;html=1;" parent="2YhsQyf3al0HYvHiBbVb-8" vertex="1">
          <mxGeometry x="30" width="150" height="30" as="geometry">
            <mxRectangle width="150" height="30" as="alternateBounds" />
          </mxGeometry>
        </mxCell>
        <mxCell id="7h0zvQkFWp-GpPomsPGq-1" value="" style="shape=tableRow;horizontal=0;startSize=0;swimlaneHead=0;swimlaneBody=0;fillColor=none;collapsible=0;dropTarget=0;points=[[0,0.5],[1,0.5]];portConstraint=eastwest;top=0;left=0;right=0;bottom=0;" parent="2YhsQyf3al0HYvHiBbVb-1" vertex="1">
          <mxGeometry y="120" width="180" height="30" as="geometry" />
        </mxCell>
        <mxCell id="7h0zvQkFWp-GpPomsPGq-2" value="" style="shape=partialRectangle;connectable=0;fillColor=none;top=0;left=0;bottom=0;right=0;editable=1;overflow=hidden;whiteSpace=wrap;html=1;" parent="7h0zvQkFWp-GpPomsPGq-1" vertex="1">
          <mxGeometry width="30" height="30" as="geometry">
            <mxRectangle width="30" height="30" as="alternateBounds" />
          </mxGeometry>
        </mxCell>
        <mxCell id="7h0zvQkFWp-GpPomsPGq-3" value="PriceAtPurchase" style="shape=partialRectangle;connectable=0;fillColor=none;top=0;left=0;bottom=0;right=0;align=left;spacingLeft=6;overflow=hidden;whiteSpace=wrap;html=1;" parent="7h0zvQkFWp-GpPomsPGq-1" vertex="1">
          <mxGeometry x="30" width="150" height="30" as="geometry">
            <mxRectangle width="150" height="30" as="alternateBounds" />
          </mxGeometry>
        </mxCell>
        <mxCell id="7h0zvQkFWp-GpPomsPGq-4" value="" style="shape=tableRow;horizontal=0;startSize=0;swimlaneHead=0;swimlaneBody=0;fillColor=none;collapsible=0;dropTarget=0;points=[[0,0.5],[1,0.5]];portConstraint=eastwest;top=0;left=0;right=0;bottom=0;" parent="2YhsQyf3al0HYvHiBbVb-1" vertex="1">
          <mxGeometry y="150" width="180" height="30" as="geometry" />
        </mxCell>
        <mxCell id="7h0zvQkFWp-GpPomsPGq-5" value="" style="shape=partialRectangle;connectable=0;fillColor=none;top=0;left=0;bottom=0;right=0;editable=1;overflow=hidden;whiteSpace=wrap;html=1;" parent="7h0zvQkFWp-GpPomsPGq-4" vertex="1">
          <mxGeometry width="30" height="30" as="geometry">
            <mxRectangle width="30" height="30" as="alternateBounds" />
          </mxGeometry>
        </mxCell>
        <mxCell id="7h0zvQkFWp-GpPomsPGq-6" value="ProductQuantity" style="shape=partialRectangle;connectable=0;fillColor=none;top=0;left=0;bottom=0;right=0;align=left;spacingLeft=6;overflow=hidden;whiteSpace=wrap;html=1;" parent="7h0zvQkFWp-GpPomsPGq-4" vertex="1">
          <mxGeometry x="30" width="150" height="30" as="geometry">
            <mxRectangle width="150" height="30" as="alternateBounds" />
          </mxGeometry>
        </mxCell>
        <mxCell id="DnyUuYHkSSk4LCToVu_B-1" value="Category" style="shape=table;startSize=30;container=1;collapsible=1;childLayout=tableLayout;fixedRows=1;rowLines=0;fontStyle=1;align=center;resizeLast=1;html=1;" parent="1" vertex="1">
          <mxGeometry x="1300" y="330" width="180" height="150" as="geometry" />
        </mxCell>
        <mxCell id="DnyUuYHkSSk4LCToVu_B-2" value="" style="shape=tableRow;horizontal=0;startSize=0;swimlaneHead=0;swimlaneBody=0;fillColor=none;collapsible=0;dropTarget=0;points=[[0,0.5],[1,0.5]];portConstraint=eastwest;top=0;left=0;right=0;bottom=1;" parent="DnyUuYHkSSk4LCToVu_B-1" vertex="1">
          <mxGeometry y="30" width="180" height="30" as="geometry" />
        </mxCell>
        <mxCell id="DnyUuYHkSSk4LCToVu_B-3" value="PK" style="shape=partialRectangle;connectable=0;fillColor=none;top=0;left=0;bottom=0;right=0;fontStyle=1;overflow=hidden;whiteSpace=wrap;html=1;" parent="DnyUuYHkSSk4LCToVu_B-2" vertex="1">
          <mxGeometry width="30" height="30" as="geometry">
            <mxRectangle width="30" height="30" as="alternateBounds" />
          </mxGeometry>
        </mxCell>
        <mxCell id="DnyUuYHkSSk4LCToVu_B-4" value="ID" style="shape=partialRectangle;connectable=0;fillColor=none;top=0;left=0;bottom=0;right=0;align=left;spacingLeft=6;fontStyle=5;overflow=hidden;whiteSpace=wrap;html=1;" parent="DnyUuYHkSSk4LCToVu_B-2" vertex="1">
          <mxGeometry x="30" width="150" height="30" as="geometry">
            <mxRectangle width="150" height="30" as="alternateBounds" />
          </mxGeometry>
        </mxCell>
        <mxCell id="DnyUuYHkSSk4LCToVu_B-5" value="" style="shape=tableRow;horizontal=0;startSize=0;swimlaneHead=0;swimlaneBody=0;fillColor=none;collapsible=0;dropTarget=0;points=[[0,0.5],[1,0.5]];portConstraint=eastwest;top=0;left=0;right=0;bottom=0;" parent="DnyUuYHkSSk4LCToVu_B-1" vertex="1">
          <mxGeometry y="60" width="180" height="30" as="geometry" />
        </mxCell>
        <mxCell id="DnyUuYHkSSk4LCToVu_B-6" value="" style="shape=partialRectangle;connectable=0;fillColor=none;top=0;left=0;bottom=0;right=0;editable=1;overflow=hidden;whiteSpace=wrap;html=1;" parent="DnyUuYHkSSk4LCToVu_B-5" vertex="1">
          <mxGeometry width="30" height="30" as="geometry">
            <mxRectangle width="30" height="30" as="alternateBounds" />
          </mxGeometry>
        </mxCell>
        <mxCell id="DnyUuYHkSSk4LCToVu_B-7" value="Name" style="shape=partialRectangle;connectable=0;fillColor=none;top=0;left=0;bottom=0;right=0;align=left;spacingLeft=6;overflow=hidden;whiteSpace=wrap;html=1;" parent="DnyUuYHkSSk4LCToVu_B-5" vertex="1">
          <mxGeometry x="30" width="150" height="30" as="geometry">
            <mxRectangle width="150" height="30" as="alternateBounds" />
          </mxGeometry>
        </mxCell>
        <mxCell id="DnyUuYHkSSk4LCToVu_B-8" value="" style="shape=tableRow;horizontal=0;startSize=0;swimlaneHead=0;swimlaneBody=0;fillColor=none;collapsible=0;dropTarget=0;points=[[0,0.5],[1,0.5]];portConstraint=eastwest;top=0;left=0;right=0;bottom=0;" parent="DnyUuYHkSSk4LCToVu_B-1" vertex="1">
          <mxGeometry y="90" width="180" height="30" as="geometry" />
        </mxCell>
        <mxCell id="DnyUuYHkSSk4LCToVu_B-9" value="" style="shape=partialRectangle;connectable=0;fillColor=none;top=0;left=0;bottom=0;right=0;editable=1;overflow=hidden;whiteSpace=wrap;html=1;" parent="DnyUuYHkSSk4LCToVu_B-8" vertex="1">
          <mxGeometry width="30" height="30" as="geometry">
            <mxRectangle width="30" height="30" as="alternateBounds" />
          </mxGeometry>
        </mxCell>
        <mxCell id="DnyUuYHkSSk4LCToVu_B-10" value="Status" style="shape=partialRectangle;connectable=0;fillColor=none;top=0;left=0;bottom=0;right=0;align=left;spacingLeft=6;overflow=hidden;whiteSpace=wrap;html=1;" parent="DnyUuYHkSSk4LCToVu_B-8" vertex="1">
          <mxGeometry x="30" width="150" height="30" as="geometry">
            <mxRectangle width="150" height="30" as="alternateBounds" />
          </mxGeometry>
        </mxCell>
        <mxCell id="7-hzM5oVvFSxxmpgiV0O-13" value="" style="shape=tableRow;horizontal=0;startSize=0;swimlaneHead=0;swimlaneBody=0;fillColor=none;collapsible=0;dropTarget=0;points=[[0,0.5],[1,0.5]];portConstraint=eastwest;top=0;left=0;right=0;bottom=0;" parent="DnyUuYHkSSk4LCToVu_B-1" vertex="1">
          <mxGeometry y="120" width="180" height="30" as="geometry" />
        </mxCell>
        <mxCell id="7-hzM5oVvFSxxmpgiV0O-14" value="N" style="shape=partialRectangle;connectable=0;fillColor=none;top=0;left=0;bottom=0;right=0;editable=1;overflow=hidden;whiteSpace=wrap;html=1;" parent="7-hzM5oVvFSxxmpgiV0O-13" vertex="1">
          <mxGeometry width="30" height="30" as="geometry">
            <mxRectangle width="30" height="30" as="alternateBounds" />
          </mxGeometry>
        </mxCell>
        <mxCell id="7-hzM5oVvFSxxmpgiV0O-15" value="&lt;font style=&quot;color: rgb(153, 153, 255);&quot;&gt;List&amp;lt;Product&amp;gt;&lt;/font&gt;" style="shape=partialRectangle;connectable=0;fillColor=none;top=0;left=0;bottom=0;right=0;align=left;spacingLeft=6;overflow=hidden;whiteSpace=wrap;html=1;" parent="7-hzM5oVvFSxxmpgiV0O-13" vertex="1">
          <mxGeometry x="30" width="150" height="30" as="geometry">
            <mxRectangle width="150" height="30" as="alternateBounds" />
          </mxGeometry>
        </mxCell>
        <mxCell id="3TXQc94TFfiZ9i8eixxK-55" style="edgeStyle=orthogonalEdgeStyle;rounded=0;orthogonalLoop=1;jettySize=auto;html=1;exitX=0;exitY=0.5;exitDx=0;exitDy=0;entryX=1;entryY=0.5;entryDx=0;entryDy=0;" parent="1" source="3TXQc94TFfiZ9i8eixxK-52" target="PnS3_9tSfcJmIM3trs_2-2" edge="1">
          <mxGeometry relative="1" as="geometry" />
        </mxCell>
        <mxCell id="fV3Jw0ZbvpxctWgqgsTK-7" style="edgeStyle=orthogonalEdgeStyle;rounded=0;orthogonalLoop=1;jettySize=auto;html=1;exitX=1;exitY=0.5;exitDx=0;exitDy=0;" parent="1" source="fV3Jw0ZbvpxctWgqgsTK-1" target="DnyUuYHkSSk4LCToVu_B-2" edge="1">
          <mxGeometry relative="1" as="geometry" />
        </mxCell>
        <mxCell id="Zo9RFdd3lkhWTu0PTDzz-30" style="edgeStyle=orthogonalEdgeStyle;rounded=0;orthogonalLoop=1;jettySize=auto;html=1;exitX=1;exitY=0.5;exitDx=0;exitDy=0;" parent="1" source="Zo9RFdd3lkhWTu0PTDzz-26" target="4U4OpnXmxgGwjBFbEaca-2" edge="1">
          <mxGeometry relative="1" as="geometry" />
        </mxCell>
        <mxCell id="Zo9RFdd3lkhWTu0PTDzz-31" style="edgeStyle=orthogonalEdgeStyle;rounded=0;orthogonalLoop=1;jettySize=auto;html=1;exitX=0;exitY=0.5;exitDx=0;exitDy=0;entryX=1;entryY=0.667;entryDx=0;entryDy=0;entryPerimeter=0;" parent="1" source="2YhsQyf3al0HYvHiBbVb-2" target="2ee6D_jXwpwEKhK5w4Ow-2" edge="1">
          <mxGeometry relative="1" as="geometry" />
        </mxCell>
        <mxCell id="BQqeKhYRISQnu3tn1PhA-14" value="ProductColor" style="shape=table;startSize=30;container=1;collapsible=1;childLayout=tableLayout;fixedRows=1;rowLines=0;fontStyle=1;align=center;resizeLast=1;html=1;" parent="1" vertex="1">
          <mxGeometry x="1300" y="50" width="180" height="90" as="geometry" />
        </mxCell>
        <mxCell id="BQqeKhYRISQnu3tn1PhA-15" value="" style="shape=tableRow;horizontal=0;startSize=0;swimlaneHead=0;swimlaneBody=0;fillColor=none;collapsible=0;dropTarget=0;points=[[0,0.5],[1,0.5]];portConstraint=eastwest;top=0;left=0;right=0;bottom=1;" parent="BQqeKhYRISQnu3tn1PhA-14" vertex="1">
          <mxGeometry y="30" width="180" height="30" as="geometry" />
        </mxCell>
        <mxCell id="BQqeKhYRISQnu3tn1PhA-16" value="PK" style="shape=partialRectangle;connectable=0;fillColor=none;top=0;left=0;bottom=0;right=0;fontStyle=1;overflow=hidden;whiteSpace=wrap;html=1;" parent="BQqeKhYRISQnu3tn1PhA-15" vertex="1">
          <mxGeometry width="30" height="30" as="geometry">
            <mxRectangle width="30" height="30" as="alternateBounds" />
          </mxGeometry>
        </mxCell>
        <mxCell id="BQqeKhYRISQnu3tn1PhA-17" value="ProductId" style="shape=partialRectangle;connectable=0;fillColor=none;top=0;left=0;bottom=0;right=0;align=left;spacingLeft=6;fontStyle=5;overflow=hidden;whiteSpace=wrap;html=1;" parent="BQqeKhYRISQnu3tn1PhA-15" vertex="1">
          <mxGeometry x="30" width="150" height="30" as="geometry">
            <mxRectangle width="150" height="30" as="alternateBounds" />
          </mxGeometry>
        </mxCell>
        <mxCell id="BQqeKhYRISQnu3tn1PhA-40" value="" style="shape=tableRow;horizontal=0;startSize=0;swimlaneHead=0;swimlaneBody=0;fillColor=none;collapsible=0;dropTarget=0;points=[[0,0.5],[1,0.5]];portConstraint=eastwest;top=0;left=0;right=0;bottom=1;" parent="BQqeKhYRISQnu3tn1PhA-14" vertex="1">
          <mxGeometry y="60" width="180" height="30" as="geometry" />
        </mxCell>
        <mxCell id="BQqeKhYRISQnu3tn1PhA-41" value="PK" style="shape=partialRectangle;connectable=0;fillColor=none;top=0;left=0;bottom=0;right=0;fontStyle=1;overflow=hidden;whiteSpace=wrap;html=1;" parent="BQqeKhYRISQnu3tn1PhA-40" vertex="1">
          <mxGeometry width="30" height="30" as="geometry">
            <mxRectangle width="30" height="30" as="alternateBounds" />
          </mxGeometry>
        </mxCell>
        <mxCell id="BQqeKhYRISQnu3tn1PhA-42" value="colorId" style="shape=partialRectangle;connectable=0;fillColor=none;top=0;left=0;bottom=0;right=0;align=left;spacingLeft=6;fontStyle=5;overflow=hidden;whiteSpace=wrap;html=1;" parent="BQqeKhYRISQnu3tn1PhA-40" vertex="1">
          <mxGeometry x="30" width="150" height="30" as="geometry">
            <mxRectangle width="150" height="30" as="alternateBounds" />
          </mxGeometry>
        </mxCell>
        <mxCell id="BQqeKhYRISQnu3tn1PhA-27" value="Color" style="shape=table;startSize=30;container=1;collapsible=1;childLayout=tableLayout;fixedRows=1;rowLines=0;fontStyle=1;align=center;resizeLast=1;html=1;" parent="1" vertex="1">
          <mxGeometry x="1590" y="60" width="180" height="120" as="geometry" />
        </mxCell>
        <mxCell id="BQqeKhYRISQnu3tn1PhA-28" value="" style="shape=tableRow;horizontal=0;startSize=0;swimlaneHead=0;swimlaneBody=0;fillColor=none;collapsible=0;dropTarget=0;points=[[0,0.5],[1,0.5]];portConstraint=eastwest;top=0;left=0;right=0;bottom=1;" parent="BQqeKhYRISQnu3tn1PhA-27" vertex="1">
          <mxGeometry y="30" width="180" height="30" as="geometry" />
        </mxCell>
        <mxCell id="BQqeKhYRISQnu3tn1PhA-29" value="PK" style="shape=partialRectangle;connectable=0;fillColor=none;top=0;left=0;bottom=0;right=0;fontStyle=1;overflow=hidden;whiteSpace=wrap;html=1;" parent="BQqeKhYRISQnu3tn1PhA-28" vertex="1">
          <mxGeometry width="30" height="30" as="geometry">
            <mxRectangle width="30" height="30" as="alternateBounds" />
          </mxGeometry>
        </mxCell>
        <mxCell id="BQqeKhYRISQnu3tn1PhA-30" value="ID" style="shape=partialRectangle;connectable=0;fillColor=none;top=0;left=0;bottom=0;right=0;align=left;spacingLeft=6;fontStyle=5;overflow=hidden;whiteSpace=wrap;html=1;" parent="BQqeKhYRISQnu3tn1PhA-28" vertex="1">
          <mxGeometry x="30" width="150" height="30" as="geometry">
            <mxRectangle width="150" height="30" as="alternateBounds" />
          </mxGeometry>
        </mxCell>
        <mxCell id="BQqeKhYRISQnu3tn1PhA-31" value="" style="shape=tableRow;horizontal=0;startSize=0;swimlaneHead=0;swimlaneBody=0;fillColor=none;collapsible=0;dropTarget=0;points=[[0,0.5],[1,0.5]];portConstraint=eastwest;top=0;left=0;right=0;bottom=0;" parent="BQqeKhYRISQnu3tn1PhA-27" vertex="1">
          <mxGeometry y="60" width="180" height="30" as="geometry" />
        </mxCell>
        <mxCell id="BQqeKhYRISQnu3tn1PhA-32" value="" style="shape=partialRectangle;connectable=0;fillColor=none;top=0;left=0;bottom=0;right=0;editable=1;overflow=hidden;whiteSpace=wrap;html=1;" parent="BQqeKhYRISQnu3tn1PhA-31" vertex="1">
          <mxGeometry width="30" height="30" as="geometry">
            <mxRectangle width="30" height="30" as="alternateBounds" />
          </mxGeometry>
        </mxCell>
        <mxCell id="BQqeKhYRISQnu3tn1PhA-33" value="Name" style="shape=partialRectangle;connectable=0;fillColor=none;top=0;left=0;bottom=0;right=0;align=left;spacingLeft=6;overflow=hidden;whiteSpace=wrap;html=1;" parent="BQqeKhYRISQnu3tn1PhA-31" vertex="1">
          <mxGeometry x="30" width="150" height="30" as="geometry">
            <mxRectangle width="150" height="30" as="alternateBounds" />
          </mxGeometry>
        </mxCell>
        <mxCell id="AHZuxhv498sAjvW8aohf-1" value="" style="shape=tableRow;horizontal=0;startSize=0;swimlaneHead=0;swimlaneBody=0;fillColor=none;collapsible=0;dropTarget=0;points=[[0,0.5],[1,0.5]];portConstraint=eastwest;top=0;left=0;right=0;bottom=0;" parent="BQqeKhYRISQnu3tn1PhA-27" vertex="1">
          <mxGeometry y="90" width="180" height="30" as="geometry" />
        </mxCell>
        <mxCell id="AHZuxhv498sAjvW8aohf-2" value="" style="shape=partialRectangle;connectable=0;fillColor=none;top=0;left=0;bottom=0;right=0;editable=1;overflow=hidden;whiteSpace=wrap;html=1;" parent="AHZuxhv498sAjvW8aohf-1" vertex="1">
          <mxGeometry width="30" height="30" as="geometry">
            <mxRectangle width="30" height="30" as="alternateBounds" />
          </mxGeometry>
        </mxCell>
        <mxCell id="AHZuxhv498sAjvW8aohf-3" value="HeXCode" style="shape=partialRectangle;connectable=0;fillColor=none;top=0;left=0;bottom=0;right=0;align=left;spacingLeft=6;overflow=hidden;whiteSpace=wrap;html=1;" parent="AHZuxhv498sAjvW8aohf-1" vertex="1">
          <mxGeometry x="30" width="150" height="30" as="geometry">
            <mxRectangle width="150" height="30" as="alternateBounds" />
          </mxGeometry>
        </mxCell>
        <mxCell id="BQqeKhYRISQnu3tn1PhA-43" style="edgeStyle=orthogonalEdgeStyle;rounded=0;orthogonalLoop=1;jettySize=auto;html=1;" parent="1" source="BQqeKhYRISQnu3tn1PhA-40" target="BQqeKhYRISQnu3tn1PhA-28" edge="1">
          <mxGeometry relative="1" as="geometry" />
        </mxCell>
        <mxCell id="BQqeKhYRISQnu3tn1PhA-44" style="edgeStyle=orthogonalEdgeStyle;rounded=0;orthogonalLoop=1;jettySize=auto;html=1;exitX=0;exitY=0.5;exitDx=0;exitDy=0;entryX=1;entryY=0.5;entryDx=0;entryDy=0;" parent="1" source="BQqeKhYRISQnu3tn1PhA-15" target="4U4OpnXmxgGwjBFbEaca-2" edge="1">
          <mxGeometry relative="1" as="geometry" />
        </mxCell>
        <mxCell id="BQqeKhYRISQnu3tn1PhA-45" value="Brand" style="shape=table;startSize=30;container=1;collapsible=1;childLayout=tableLayout;fixedRows=1;rowLines=0;fontStyle=1;align=center;resizeLast=1;html=1;" parent="1" vertex="1">
          <mxGeometry x="1570" y="210" width="180" height="120" as="geometry" />
        </mxCell>
        <mxCell id="BQqeKhYRISQnu3tn1PhA-46" value="" style="shape=tableRow;horizontal=0;startSize=0;swimlaneHead=0;swimlaneBody=0;fillColor=none;collapsible=0;dropTarget=0;points=[[0,0.5],[1,0.5]];portConstraint=eastwest;top=0;left=0;right=0;bottom=1;" parent="BQqeKhYRISQnu3tn1PhA-45" vertex="1">
          <mxGeometry y="30" width="180" height="30" as="geometry" />
        </mxCell>
        <mxCell id="BQqeKhYRISQnu3tn1PhA-47" value="PK" style="shape=partialRectangle;connectable=0;fillColor=none;top=0;left=0;bottom=0;right=0;fontStyle=1;overflow=hidden;whiteSpace=wrap;html=1;" parent="BQqeKhYRISQnu3tn1PhA-46" vertex="1">
          <mxGeometry width="30" height="30" as="geometry">
            <mxRectangle width="30" height="30" as="alternateBounds" />
          </mxGeometry>
        </mxCell>
        <mxCell id="BQqeKhYRISQnu3tn1PhA-48" value="ID" style="shape=partialRectangle;connectable=0;fillColor=none;top=0;left=0;bottom=0;right=0;align=left;spacingLeft=6;fontStyle=5;overflow=hidden;whiteSpace=wrap;html=1;" parent="BQqeKhYRISQnu3tn1PhA-46" vertex="1">
          <mxGeometry x="30" width="150" height="30" as="geometry">
            <mxRectangle width="150" height="30" as="alternateBounds" />
          </mxGeometry>
        </mxCell>
        <mxCell id="BQqeKhYRISQnu3tn1PhA-49" value="" style="shape=tableRow;horizontal=0;startSize=0;swimlaneHead=0;swimlaneBody=0;fillColor=none;collapsible=0;dropTarget=0;points=[[0,0.5],[1,0.5]];portConstraint=eastwest;top=0;left=0;right=0;bottom=0;" parent="BQqeKhYRISQnu3tn1PhA-45" vertex="1">
          <mxGeometry y="60" width="180" height="30" as="geometry" />
        </mxCell>
        <mxCell id="BQqeKhYRISQnu3tn1PhA-50" value="" style="shape=partialRectangle;connectable=0;fillColor=none;top=0;left=0;bottom=0;right=0;editable=1;overflow=hidden;whiteSpace=wrap;html=1;" parent="BQqeKhYRISQnu3tn1PhA-49" vertex="1">
          <mxGeometry width="30" height="30" as="geometry">
            <mxRectangle width="30" height="30" as="alternateBounds" />
          </mxGeometry>
        </mxCell>
        <mxCell id="BQqeKhYRISQnu3tn1PhA-51" value="Name" style="shape=partialRectangle;connectable=0;fillColor=none;top=0;left=0;bottom=0;right=0;align=left;spacingLeft=6;overflow=hidden;whiteSpace=wrap;html=1;" parent="BQqeKhYRISQnu3tn1PhA-49" vertex="1">
          <mxGeometry x="30" width="150" height="30" as="geometry">
            <mxRectangle width="150" height="30" as="alternateBounds" />
          </mxGeometry>
        </mxCell>
        <mxCell id="BQqeKhYRISQnu3tn1PhA-52" value="" style="shape=tableRow;horizontal=0;startSize=0;swimlaneHead=0;swimlaneBody=0;fillColor=none;collapsible=0;dropTarget=0;points=[[0,0.5],[1,0.5]];portConstraint=eastwest;top=0;left=0;right=0;bottom=0;" parent="BQqeKhYRISQnu3tn1PhA-45" vertex="1">
          <mxGeometry y="90" width="180" height="30" as="geometry" />
        </mxCell>
        <mxCell id="BQqeKhYRISQnu3tn1PhA-53" value="" style="shape=partialRectangle;connectable=0;fillColor=none;top=0;left=0;bottom=0;right=0;editable=1;overflow=hidden;whiteSpace=wrap;html=1;" parent="BQqeKhYRISQnu3tn1PhA-52" vertex="1">
          <mxGeometry width="30" height="30" as="geometry">
            <mxRectangle width="30" height="30" as="alternateBounds" />
          </mxGeometry>
        </mxCell>
        <mxCell id="BQqeKhYRISQnu3tn1PhA-54" value="Description" style="shape=partialRectangle;connectable=0;fillColor=none;top=0;left=0;bottom=0;right=0;align=left;spacingLeft=6;overflow=hidden;whiteSpace=wrap;html=1;" parent="BQqeKhYRISQnu3tn1PhA-52" vertex="1">
          <mxGeometry x="30" width="150" height="30" as="geometry">
            <mxRectangle width="150" height="30" as="alternateBounds" />
          </mxGeometry>
        </mxCell>
        <mxCell id="Q9BgvWeoi09FYoe0iseZ-1" style="edgeStyle=orthogonalEdgeStyle;rounded=0;orthogonalLoop=1;jettySize=auto;html=1;exitX=1;exitY=0.5;exitDx=0;exitDy=0;entryX=0;entryY=0.5;entryDx=0;entryDy=0;" parent="1" source="BQqeKhYRISQnu3tn1PhA-58" target="BQqeKhYRISQnu3tn1PhA-46" edge="1">
          <mxGeometry relative="1" as="geometry" />
        </mxCell>
        <mxCell id="NMge0ZJLRC3KhmUuuxCf-1" value="Payment" style="shape=table;startSize=30;container=1;collapsible=1;childLayout=tableLayout;fixedRows=1;rowLines=0;fontStyle=1;align=center;resizeLast=1;html=1;" parent="1" vertex="1">
          <mxGeometry x="200" y="445" width="180" height="210" as="geometry" />
        </mxCell>
        <mxCell id="NMge0ZJLRC3KhmUuuxCf-2" value="" style="shape=tableRow;horizontal=0;startSize=0;swimlaneHead=0;swimlaneBody=0;fillColor=none;collapsible=0;dropTarget=0;points=[[0,0.5],[1,0.5]];portConstraint=eastwest;top=0;left=0;right=0;bottom=1;" parent="NMge0ZJLRC3KhmUuuxCf-1" vertex="1">
          <mxGeometry y="30" width="180" height="30" as="geometry" />
        </mxCell>
        <mxCell id="NMge0ZJLRC3KhmUuuxCf-3" value="PK" style="shape=partialRectangle;connectable=0;fillColor=none;top=0;left=0;bottom=0;right=0;fontStyle=1;overflow=hidden;whiteSpace=wrap;html=1;" parent="NMge0ZJLRC3KhmUuuxCf-2" vertex="1">
          <mxGeometry width="30" height="30" as="geometry">
            <mxRectangle width="30" height="30" as="alternateBounds" />
          </mxGeometry>
        </mxCell>
        <mxCell id="NMge0ZJLRC3KhmUuuxCf-4" value="ID" style="shape=partialRectangle;connectable=0;fillColor=none;top=0;left=0;bottom=0;right=0;align=left;spacingLeft=6;fontStyle=5;overflow=hidden;whiteSpace=wrap;html=1;" parent="NMge0ZJLRC3KhmUuuxCf-2" vertex="1">
          <mxGeometry x="30" width="150" height="30" as="geometry">
            <mxRectangle width="150" height="30" as="alternateBounds" />
          </mxGeometry>
        </mxCell>
        <mxCell id="NMge0ZJLRC3KhmUuuxCf-5" value="" style="shape=tableRow;horizontal=0;startSize=0;swimlaneHead=0;swimlaneBody=0;fillColor=none;collapsible=0;dropTarget=0;points=[[0,0.5],[1,0.5]];portConstraint=eastwest;top=0;left=0;right=0;bottom=0;" parent="NMge0ZJLRC3KhmUuuxCf-1" vertex="1">
          <mxGeometry y="60" width="180" height="30" as="geometry" />
        </mxCell>
        <mxCell id="NMge0ZJLRC3KhmUuuxCf-6" value="" style="shape=partialRectangle;connectable=0;fillColor=none;top=0;left=0;bottom=0;right=0;editable=1;overflow=hidden;whiteSpace=wrap;html=1;" parent="NMge0ZJLRC3KhmUuuxCf-5" vertex="1">
          <mxGeometry width="30" height="30" as="geometry">
            <mxRectangle width="30" height="30" as="alternateBounds" />
          </mxGeometry>
        </mxCell>
        <mxCell id="NMge0ZJLRC3KhmUuuxCf-7" value="AmountPaid" style="shape=partialRectangle;connectable=0;fillColor=none;top=0;left=0;bottom=0;right=0;align=left;spacingLeft=6;overflow=hidden;whiteSpace=wrap;html=1;" parent="NMge0ZJLRC3KhmUuuxCf-5" vertex="1">
          <mxGeometry x="30" width="150" height="30" as="geometry">
            <mxRectangle width="150" height="30" as="alternateBounds" />
          </mxGeometry>
        </mxCell>
        <mxCell id="NMge0ZJLRC3KhmUuuxCf-8" value="" style="shape=tableRow;horizontal=0;startSize=0;swimlaneHead=0;swimlaneBody=0;fillColor=none;collapsible=0;dropTarget=0;points=[[0,0.5],[1,0.5]];portConstraint=eastwest;top=0;left=0;right=0;bottom=0;" parent="NMge0ZJLRC3KhmUuuxCf-1" vertex="1">
          <mxGeometry y="90" width="180" height="30" as="geometry" />
        </mxCell>
        <mxCell id="NMge0ZJLRC3KhmUuuxCf-9" value="" style="shape=partialRectangle;connectable=0;fillColor=none;top=0;left=0;bottom=0;right=0;editable=1;overflow=hidden;whiteSpace=wrap;html=1;" parent="NMge0ZJLRC3KhmUuuxCf-8" vertex="1">
          <mxGeometry width="30" height="30" as="geometry">
            <mxRectangle width="30" height="30" as="alternateBounds" />
          </mxGeometry>
        </mxCell>
        <mxCell id="NMge0ZJLRC3KhmUuuxCf-10" value="Status" style="shape=partialRectangle;connectable=0;fillColor=none;top=0;left=0;bottom=0;right=0;align=left;spacingLeft=6;overflow=hidden;whiteSpace=wrap;html=1;" parent="NMge0ZJLRC3KhmUuuxCf-8" vertex="1">
          <mxGeometry x="30" width="150" height="30" as="geometry">
            <mxRectangle width="150" height="30" as="alternateBounds" />
          </mxGeometry>
        </mxCell>
        <mxCell id="zfXnTSBHvuY1rhnqu_AY-1" value="" style="shape=tableRow;horizontal=0;startSize=0;swimlaneHead=0;swimlaneBody=0;fillColor=none;collapsible=0;dropTarget=0;points=[[0,0.5],[1,0.5]];portConstraint=eastwest;top=0;left=0;right=0;bottom=0;" parent="NMge0ZJLRC3KhmUuuxCf-1" vertex="1">
          <mxGeometry y="120" width="180" height="30" as="geometry" />
        </mxCell>
        <mxCell id="zfXnTSBHvuY1rhnqu_AY-2" value="" style="shape=partialRectangle;connectable=0;fillColor=none;top=0;left=0;bottom=0;right=0;editable=1;overflow=hidden;whiteSpace=wrap;html=1;" parent="zfXnTSBHvuY1rhnqu_AY-1" vertex="1">
          <mxGeometry width="30" height="30" as="geometry">
            <mxRectangle width="30" height="30" as="alternateBounds" />
          </mxGeometry>
        </mxCell>
        <mxCell id="zfXnTSBHvuY1rhnqu_AY-3" value="&lt;i&gt;PaymentDate&lt;/i&gt;" style="shape=partialRectangle;connectable=0;fillColor=none;top=0;left=0;bottom=0;right=0;align=left;spacingLeft=6;overflow=hidden;whiteSpace=wrap;html=1;" parent="zfXnTSBHvuY1rhnqu_AY-1" vertex="1">
          <mxGeometry x="30" width="150" height="30" as="geometry">
            <mxRectangle width="150" height="30" as="alternateBounds" />
          </mxGeometry>
        </mxCell>
        <mxCell id="NMge0ZJLRC3KhmUuuxCf-11" value="" style="shape=tableRow;horizontal=0;startSize=0;swimlaneHead=0;swimlaneBody=0;fillColor=none;collapsible=0;dropTarget=0;points=[[0,0.5],[1,0.5]];portConstraint=eastwest;top=0;left=0;right=0;bottom=0;" parent="NMge0ZJLRC3KhmUuuxCf-1" vertex="1">
          <mxGeometry y="150" width="180" height="30" as="geometry" />
        </mxCell>
        <mxCell id="NMge0ZJLRC3KhmUuuxCf-12" value="" style="shape=partialRectangle;connectable=0;fillColor=none;top=0;left=0;bottom=0;right=0;editable=1;overflow=hidden;whiteSpace=wrap;html=1;" parent="NMge0ZJLRC3KhmUuuxCf-11" vertex="1">
          <mxGeometry width="30" height="30" as="geometry">
            <mxRectangle width="30" height="30" as="alternateBounds" />
          </mxGeometry>
        </mxCell>
        <mxCell id="NMge0ZJLRC3KhmUuuxCf-13" value="&lt;i&gt;PaymentMethod&lt;/i&gt;" style="shape=partialRectangle;connectable=0;fillColor=none;top=0;left=0;bottom=0;right=0;align=left;spacingLeft=6;overflow=hidden;whiteSpace=wrap;html=1;" parent="NMge0ZJLRC3KhmUuuxCf-11" vertex="1">
          <mxGeometry x="30" width="150" height="30" as="geometry">
            <mxRectangle width="150" height="30" as="alternateBounds" />
          </mxGeometry>
        </mxCell>
        <mxCell id="NMge0ZJLRC3KhmUuuxCf-23" value="" style="shape=tableRow;horizontal=0;startSize=0;swimlaneHead=0;swimlaneBody=0;fillColor=none;collapsible=0;dropTarget=0;points=[[0,0.5],[1,0.5]];portConstraint=eastwest;top=0;left=0;right=0;bottom=0;" parent="NMge0ZJLRC3KhmUuuxCf-1" vertex="1">
          <mxGeometry y="180" width="180" height="30" as="geometry" />
        </mxCell>
        <mxCell id="NMge0ZJLRC3KhmUuuxCf-24" value="&lt;b&gt;FK&lt;/b&gt;" style="shape=partialRectangle;connectable=0;fillColor=none;top=0;left=0;bottom=0;right=0;editable=1;overflow=hidden;whiteSpace=wrap;html=1;" parent="NMge0ZJLRC3KhmUuuxCf-23" vertex="1">
          <mxGeometry width="30" height="30" as="geometry">
            <mxRectangle width="30" height="30" as="alternateBounds" />
          </mxGeometry>
        </mxCell>
        <mxCell id="NMge0ZJLRC3KhmUuuxCf-25" value="&lt;i&gt;OrderId&lt;/i&gt;" style="shape=partialRectangle;connectable=0;fillColor=none;top=0;left=0;bottom=0;right=0;align=left;spacingLeft=6;overflow=hidden;whiteSpace=wrap;html=1;" parent="NMge0ZJLRC3KhmUuuxCf-23" vertex="1">
          <mxGeometry x="30" width="150" height="30" as="geometry">
            <mxRectangle width="150" height="30" as="alternateBounds" />
          </mxGeometry>
        </mxCell>
        <mxCell id="oTkE2LoS7B3wDLiNLpWx-6" style="edgeStyle=orthogonalEdgeStyle;rounded=0;orthogonalLoop=1;jettySize=auto;html=1;exitX=1;exitY=0.5;exitDx=0;exitDy=0;entryX=0;entryY=0.5;entryDx=0;entryDy=0;" parent="1" source="NMge0ZJLRC3KhmUuuxCf-23" target="2ee6D_jXwpwEKhK5w4Ow-2" edge="1">
          <mxGeometry relative="1" as="geometry" />
        </mxCell>
        <mxCell id="pxBdoaDaghtDdXHSV6Uh-1" value="Wishlist" style="shape=table;startSize=30;container=1;collapsible=1;childLayout=tableLayout;fixedRows=1;rowLines=0;fontStyle=1;align=center;resizeLast=1;html=1;" vertex="1" parent="1">
          <mxGeometry x="510" y="590" width="180" height="120" as="geometry" />
        </mxCell>
        <mxCell id="pxBdoaDaghtDdXHSV6Uh-2" value="" style="shape=tableRow;horizontal=0;startSize=0;swimlaneHead=0;swimlaneBody=0;fillColor=none;collapsible=0;dropTarget=0;points=[[0,0.5],[1,0.5]];portConstraint=eastwest;top=0;left=0;right=0;bottom=1;" vertex="1" parent="pxBdoaDaghtDdXHSV6Uh-1">
          <mxGeometry y="30" width="180" height="30" as="geometry" />
        </mxCell>
        <mxCell id="pxBdoaDaghtDdXHSV6Uh-3" value="PK" style="shape=partialRectangle;connectable=0;fillColor=none;top=0;left=0;bottom=0;right=0;fontStyle=1;overflow=hidden;whiteSpace=wrap;html=1;" vertex="1" parent="pxBdoaDaghtDdXHSV6Uh-2">
          <mxGeometry width="30" height="30" as="geometry">
            <mxRectangle width="30" height="30" as="alternateBounds" />
          </mxGeometry>
        </mxCell>
        <mxCell id="pxBdoaDaghtDdXHSV6Uh-4" value="ID" style="shape=partialRectangle;connectable=0;fillColor=none;top=0;left=0;bottom=0;right=0;align=left;spacingLeft=6;fontStyle=5;overflow=hidden;whiteSpace=wrap;html=1;" vertex="1" parent="pxBdoaDaghtDdXHSV6Uh-2">
          <mxGeometry x="30" width="150" height="30" as="geometry">
            <mxRectangle width="150" height="30" as="alternateBounds" />
          </mxGeometry>
        </mxCell>
        <mxCell id="pxBdoaDaghtDdXHSV6Uh-17" value="" style="shape=tableRow;horizontal=0;startSize=0;swimlaneHead=0;swimlaneBody=0;fillColor=none;collapsible=0;dropTarget=0;points=[[0,0.5],[1,0.5]];portConstraint=eastwest;top=0;left=0;right=0;bottom=0;" vertex="1" parent="pxBdoaDaghtDdXHSV6Uh-1">
          <mxGeometry y="60" width="180" height="30" as="geometry" />
        </mxCell>
        <mxCell id="pxBdoaDaghtDdXHSV6Uh-18" value="" style="shape=partialRectangle;connectable=0;fillColor=none;top=0;left=0;bottom=0;right=0;editable=1;overflow=hidden;whiteSpace=wrap;html=1;" vertex="1" parent="pxBdoaDaghtDdXHSV6Uh-17">
          <mxGeometry width="30" height="30" as="geometry">
            <mxRectangle width="30" height="30" as="alternateBounds" />
          </mxGeometry>
        </mxCell>
        <mxCell id="pxBdoaDaghtDdXHSV6Uh-19" value="DateAdded" style="shape=partialRectangle;connectable=0;fillColor=none;top=0;left=0;bottom=0;right=0;align=left;spacingLeft=6;overflow=hidden;whiteSpace=wrap;html=1;" vertex="1" parent="pxBdoaDaghtDdXHSV6Uh-17">
          <mxGeometry x="30" width="150" height="30" as="geometry">
            <mxRectangle width="150" height="30" as="alternateBounds" />
          </mxGeometry>
        </mxCell>
        <mxCell id="pxBdoaDaghtDdXHSV6Uh-23" value="" style="shape=tableRow;horizontal=0;startSize=0;swimlaneHead=0;swimlaneBody=0;fillColor=none;collapsible=0;dropTarget=0;points=[[0,0.5],[1,0.5]];portConstraint=eastwest;top=0;left=0;right=0;bottom=0;" vertex="1" parent="pxBdoaDaghtDdXHSV6Uh-1">
          <mxGeometry y="90" width="180" height="30" as="geometry" />
        </mxCell>
        <mxCell id="pxBdoaDaghtDdXHSV6Uh-24" value="&lt;b&gt;FK&lt;/b&gt;" style="shape=partialRectangle;connectable=0;fillColor=none;top=0;left=0;bottom=0;right=0;editable=1;overflow=hidden;whiteSpace=wrap;html=1;" vertex="1" parent="pxBdoaDaghtDdXHSV6Uh-23">
          <mxGeometry width="30" height="30" as="geometry">
            <mxRectangle width="30" height="30" as="alternateBounds" />
          </mxGeometry>
        </mxCell>
        <mxCell id="pxBdoaDaghtDdXHSV6Uh-25" value="&lt;i&gt;UserId&lt;/i&gt;" style="shape=partialRectangle;connectable=0;fillColor=none;top=0;left=0;bottom=0;right=0;align=left;spacingLeft=6;overflow=hidden;whiteSpace=wrap;html=1;" vertex="1" parent="pxBdoaDaghtDdXHSV6Uh-23">
          <mxGeometry x="30" width="150" height="30" as="geometry">
            <mxRectangle width="150" height="30" as="alternateBounds" />
          </mxGeometry>
        </mxCell>
        <mxCell id="pxBdoaDaghtDdXHSV6Uh-41" style="edgeStyle=orthogonalEdgeStyle;rounded=0;orthogonalLoop=1;jettySize=auto;html=1;exitX=0;exitY=0.5;exitDx=0;exitDy=0;entryX=1;entryY=0.5;entryDx=0;entryDy=0;" edge="1" parent="1" source="pxBdoaDaghtDdXHSV6Uh-23" target="PnS3_9tSfcJmIM3trs_2-5">
          <mxGeometry relative="1" as="geometry" />
        </mxCell>
        <mxCell id="pxBdoaDaghtDdXHSV6Uh-42" value="Carrt" style="shape=table;startSize=30;container=1;collapsible=1;childLayout=tableLayout;fixedRows=1;rowLines=0;fontStyle=1;align=center;resizeLast=1;html=1;" vertex="1" parent="1">
          <mxGeometry x="900" y="600" width="180" height="120" as="geometry" />
        </mxCell>
        <mxCell id="pxBdoaDaghtDdXHSV6Uh-43" value="" style="shape=tableRow;horizontal=0;startSize=0;swimlaneHead=0;swimlaneBody=0;fillColor=none;collapsible=0;dropTarget=0;points=[[0,0.5],[1,0.5]];portConstraint=eastwest;top=0;left=0;right=0;bottom=1;" vertex="1" parent="pxBdoaDaghtDdXHSV6Uh-42">
          <mxGeometry y="30" width="180" height="30" as="geometry" />
        </mxCell>
        <mxCell id="pxBdoaDaghtDdXHSV6Uh-44" value="PK" style="shape=partialRectangle;connectable=0;fillColor=none;top=0;left=0;bottom=0;right=0;fontStyle=1;overflow=hidden;whiteSpace=wrap;html=1;" vertex="1" parent="pxBdoaDaghtDdXHSV6Uh-43">
          <mxGeometry width="30" height="30" as="geometry">
            <mxRectangle width="30" height="30" as="alternateBounds" />
          </mxGeometry>
        </mxCell>
        <mxCell id="pxBdoaDaghtDdXHSV6Uh-45" value="ID" style="shape=partialRectangle;connectable=0;fillColor=none;top=0;left=0;bottom=0;right=0;align=left;spacingLeft=6;fontStyle=5;overflow=hidden;whiteSpace=wrap;html=1;" vertex="1" parent="pxBdoaDaghtDdXHSV6Uh-43">
          <mxGeometry x="30" width="150" height="30" as="geometry">
            <mxRectangle width="150" height="30" as="alternateBounds" />
          </mxGeometry>
        </mxCell>
        <mxCell id="pxBdoaDaghtDdXHSV6Uh-46" value="" style="shape=tableRow;horizontal=0;startSize=0;swimlaneHead=0;swimlaneBody=0;fillColor=none;collapsible=0;dropTarget=0;points=[[0,0.5],[1,0.5]];portConstraint=eastwest;top=0;left=0;right=0;bottom=0;" vertex="1" parent="pxBdoaDaghtDdXHSV6Uh-42">
          <mxGeometry y="60" width="180" height="30" as="geometry" />
        </mxCell>
        <mxCell id="pxBdoaDaghtDdXHSV6Uh-47" value="" style="shape=partialRectangle;connectable=0;fillColor=none;top=0;left=0;bottom=0;right=0;editable=1;overflow=hidden;whiteSpace=wrap;html=1;" vertex="1" parent="pxBdoaDaghtDdXHSV6Uh-46">
          <mxGeometry width="30" height="30" as="geometry">
            <mxRectangle width="30" height="30" as="alternateBounds" />
          </mxGeometry>
        </mxCell>
        <mxCell id="pxBdoaDaghtDdXHSV6Uh-48" value="DateAdded" style="shape=partialRectangle;connectable=0;fillColor=none;top=0;left=0;bottom=0;right=0;align=left;spacingLeft=6;overflow=hidden;whiteSpace=wrap;html=1;" vertex="1" parent="pxBdoaDaghtDdXHSV6Uh-46">
          <mxGeometry x="30" width="150" height="30" as="geometry">
            <mxRectangle width="150" height="30" as="alternateBounds" />
          </mxGeometry>
        </mxCell>
        <mxCell id="pxBdoaDaghtDdXHSV6Uh-49" value="" style="shape=tableRow;horizontal=0;startSize=0;swimlaneHead=0;swimlaneBody=0;fillColor=none;collapsible=0;dropTarget=0;points=[[0,0.5],[1,0.5]];portConstraint=eastwest;top=0;left=0;right=0;bottom=0;" vertex="1" parent="pxBdoaDaghtDdXHSV6Uh-42">
          <mxGeometry y="90" width="180" height="30" as="geometry" />
        </mxCell>
        <mxCell id="pxBdoaDaghtDdXHSV6Uh-50" value="&lt;b&gt;FK&lt;/b&gt;" style="shape=partialRectangle;connectable=0;fillColor=none;top=0;left=0;bottom=0;right=0;editable=1;overflow=hidden;whiteSpace=wrap;html=1;" vertex="1" parent="pxBdoaDaghtDdXHSV6Uh-49">
          <mxGeometry width="30" height="30" as="geometry">
            <mxRectangle width="30" height="30" as="alternateBounds" />
          </mxGeometry>
        </mxCell>
        <mxCell id="pxBdoaDaghtDdXHSV6Uh-51" value="&lt;i&gt;UserId&lt;/i&gt;" style="shape=partialRectangle;connectable=0;fillColor=none;top=0;left=0;bottom=0;right=0;align=left;spacingLeft=6;overflow=hidden;whiteSpace=wrap;html=1;" vertex="1" parent="pxBdoaDaghtDdXHSV6Uh-49">
          <mxGeometry x="30" width="150" height="30" as="geometry">
            <mxRectangle width="150" height="30" as="alternateBounds" />
          </mxGeometry>
        </mxCell>
        <mxCell id="pxBdoaDaghtDdXHSV6Uh-52" style="edgeStyle=orthogonalEdgeStyle;rounded=0;orthogonalLoop=1;jettySize=auto;html=1;exitX=0;exitY=0.5;exitDx=0;exitDy=0;entryX=0;entryY=0.5;entryDx=0;entryDy=0;" edge="1" parent="1" source="pxBdoaDaghtDdXHSV6Uh-49" target="PnS3_9tSfcJmIM3trs_2-2">
          <mxGeometry relative="1" as="geometry">
            <Array as="points">
              <mxPoint x="900" y="790" />
              <mxPoint x="110" y="790" />
              <mxPoint x="110" y="125" />
            </Array>
          </mxGeometry>
        </mxCell>
        <mxCell id="pxBdoaDaghtDdXHSV6Uh-56" style="edgeStyle=orthogonalEdgeStyle;rounded=0;orthogonalLoop=1;jettySize=auto;html=1;exitX=0;exitY=0.5;exitDx=0;exitDy=0;entryX=1;entryY=0.5;entryDx=0;entryDy=0;" edge="1" parent="1" source="pxBdoaDaghtDdXHSV6Uh-53" target="pxBdoaDaghtDdXHSV6Uh-43">
          <mxGeometry relative="1" as="geometry" />
        </mxCell>
        <mxCell id="pxBdoaDaghtDdXHSV6Uh-60" style="edgeStyle=orthogonalEdgeStyle;rounded=0;orthogonalLoop=1;jettySize=auto;html=1;exitX=0;exitY=0.5;exitDx=0;exitDy=0;entryX=1;entryY=0.5;entryDx=0;entryDy=0;" edge="1" parent="1" source="pxBdoaDaghtDdXHSV6Uh-57" target="pxBdoaDaghtDdXHSV6Uh-2">
          <mxGeometry relative="1" as="geometry">
            <Array as="points">
              <mxPoint x="1010" y="580" />
              <mxPoint x="850" y="580" />
              <mxPoint x="850" y="635" />
            </Array>
          </mxGeometry>
        </mxCell>
      </root>
    </mxGraphModel>
  </diagram>
</mxfile>
